<?xml version="1.0" standalone="no"?>
<!DOCTYPE svg PUBLIC "-//W3C//DTD SVG 20010904//EN"
 "http://www.w3.org/TR/2001/REC-SVG-20010904/DTD/svg10.dtd">
<svg version="1.0" xmlns="http://www.w3.org/2000/svg"
 width="980.000000pt" height="980.000000pt" viewBox="0 0 980.000000 980.000000"
 preserveAspectRatio="xMidYMid meet">
<metadata>
Created by potrace 1.14, written by Peter Selinger 2001-2017
</metadata>
<g transform="translate(0.000000,980.000000) scale(0.100000,-0.100000)"
fill="#000000" stroke="none">
<path d="M4580 9630 c-145 -9 -359 -34 -480 -56 -728 -130 -1338 -382 -1970
-813 -85 -58 -182 -127 -214 -153 -33 -26 -64 -48 -69 -48 -6 0 -16 -8 -24
-17 -10 -14 -13 -14 -11 -3 2 10 -5 15 -19 14 -12 0 -22 2 -21 5 3 29 -5 51
-17 51 -8 0 -15 -5 -15 -11 0 -6 -7 -8 -16 -5 -19 7 -80 -41 -208 -163 -431
-412 -725 -810 -991 -1336 -441 -873 -608 -1841 -484 -2815 179 -1412 965
-2677 2154 -3465 663 -439 1401 -702 2225 -792 231 -25 729 -25 960 0 1012
111 1907 488 2675 1128 137 114 426 400 546 539 531 618 885 1312 1063 2080
75 324 109 575 126 917 10 206 3 476 -16 583 -4 19 -6 45 -6 58 0 12 -3 22 -7
22 -3 0 -6 15 -5 34 2 28 -1 33 -14 29 -12 -5 -14 -2 -9 11 4 10 3 15 -3 11
-5 -3 -15 5 -22 20 -8 18 -17 24 -30 19 -12 -4 -18 0 -18 11 0 13 6 16 25 12
14 -2 23 -2 21 1 -3 3 4 13 16 23 16 15 17 19 6 19 -9 0 -18 -7 -22 -15 -5
-13 -9 -13 -26 -3 -28 18 -35 41 -10 33 12 -4 20 -2 20 5 0 7 -9 14 -21 17
-11 3 -18 11 -15 19 3 7 0 15 -7 17 -9 3 -9 10 1 27 8 12 9 19 3 15 -7 -3 -12
3 -13 17 -3 40 -5 53 -13 70 -4 10 -5 23 -2 30 2 7 0 21 -4 30 -5 9 -18 61
-29 115 -84 424 -318 1023 -533 1368 -207 331 -380 563 -575 767 -554 580
-1102 956 -1797 1236 -458 183 -842 276 -1350 326 -185 18 -587 27 -755 16z
m-347 -643 l42 -22 -59 -3 c-48 -3 -59 -6 -63 -23 -6 -20 -6 -20 -27 -1 -11
11 -30 23 -42 26 -23 7 -26 47 -4 54 7 3 34 21 59 40 l46 35 3 -42 c3 -37 7
-43 45 -64z m-1733 -398 c0 -5 -7 -9 -15 -9 -15 0 -20 12 -9 23 8 8 24 -1 24
-14z m-778 -17 c-7 -2 -12 -8 -12 -14 0 -6 7 -7 16 -4 9 3 27 -3 41 -14 l26
-20 -34 6 c-19 4 -40 12 -47 18 -15 14 -5 49 11 39 8 -5 7 -8 -1 -11z m3438
-87 c261 -24 319 -36 573 -116 360 -114 669 -282 916 -498 58 -50 111 -91 118
-91 8 0 39 8 71 19 135 44 357 35 492 -22 149 -62 349 -224 440 -357 70 -103
181 -356 180 -410 -1 -8 -16 28 -35 80 -68 187 -151 317 -281 441 -248 235
-543 283 -802 128 -46 -27 -86 -49 -88 -49 -3 0 -20 -11 -38 -25 -18 -14 -35
-25 -38 -25 -14 0 -68 -60 -68 -74 0 -9 -4 -16 -10 -16 -5 0 -10 -7 -10 -15 0
-8 -3 -15 -8 -15 -7 0 -14 -14 -47 -95 -9 -21 -22 -46 -30 -55 -8 -8 -18 -36
-24 -60 -16 -73 -39 -120 -59 -120 -15 1 -15 2 3 16 16 12 17 16 6 24 -12 7
-12 15 2 52 9 24 17 52 17 63 0 54 103 262 164 334 26 29 56 62 69 72 l22 18
-31 1 c-19 0 -34 -6 -38 -15 -3 -9 -18 -15 -39 -15 -18 0 -38 -5 -45 -12 -7
-7 -12 -9 -12 -5 0 30 -287 -188 -355 -270 -38 -47 -49 -42 -42 17 10 85 -10
65 -42 -42 -37 -123 -85 -224 -117 -245 -23 -15 -74 -12 -74 5 0 4 19 18 41
32 22 14 52 40 67 59 27 36 92 210 92 247 0 11 11 30 24 41 28 25 25 57 -5 74
-28 15 -36 5 -41 -53 -4 -41 -11 -57 -33 -76 -25 -21 -29 -22 -37 -8 -5 9 -19
27 -31 39 -12 13 -27 32 -33 42 -9 16 -21 19 -69 17 -66 -3 -85 8 -85 49 0 16
-5 29 -10 29 -11 0 -7 -229 4 -280 3 -14 9 -40 12 -58 3 -18 10 -35 15 -38 5
-3 9 -13 9 -22 0 -10 9 -34 20 -55 16 -29 18 -42 10 -57 -7 -14 -7 -20 0 -20
5 0 10 6 10 13 0 8 4 7 10 -3 15 -23 12 -36 -12 -48 -18 -8 -19 -11 -5 -11 18
-1 25 -21 7 -21 -5 0 -10 -7 -10 -15 0 -8 -5 -15 -10 -15 -6 0 -5 -7 2 -19 9
-15 9 -28 0 -59 -7 -22 -12 -49 -12 -61 0 -11 -4 -21 -8 -21 -15 0 -33 -73
-20 -81 22 -14 -27 -15 -72 -2 -65 18 -231 50 -330 63 -252 32 -316 45 -324
67 -3 7 -1 13 5 13 6 0 8 4 4 9 -3 5 0 13 6 17 8 4 9 3 5 -4 -13 -21 10 -13
30 10 19 22 19 23 -1 8 -11 -8 -3 4 18 28 106 120 115 306 21 407 -20 22 -31
32 -24 23 20 -28 2 -21 -43 17 -22 19 -63 44 -91 55 l-51 21 40 -5 40 -5 -30
14 c-17 8 -62 14 -105 15 -56 0 -71 3 -60 11 12 9 11 10 -7 6 -13 -3 -23 0
-23 6 0 8 -4 7 -12 -1 -19 -19 -28 -14 -18 12 5 13 6 27 3 30 -4 3 -1 17 7 30
12 23 14 24 36 9 25 -16 29 -11 25 25 -1 6 2 12 7 12 5 0 7 11 4 25 -4 25 -5
25 -23 9 -11 -10 -19 -12 -19 -6 0 7 5 12 11 12 6 0 8 7 5 16 -4 10 0 18 13
21 12 3 17 11 14 19 -3 8 1 14 8 14 8 0 6 5 -6 14 -16 12 -17 15 -3 34 8 12
18 19 21 15 4 -3 -1 -11 -10 -18 -13 -9 -13 -14 -3 -20 9 -5 11 -4 6 3 -4 7
-3 12 3 12 5 0 11 -6 14 -12 2 -7 6 1 9 19 2 18 1 30 -3 28 -4 -3 -12 2 -19
10 -11 13 -10 14 5 8 15 -5 17 -3 12 11 -4 10 0 27 8 39 8 12 15 16 15 9 0 -7
4 -10 10 -7 6 4 7 -1 3 -11 -4 -12 -3 -15 5 -10 7 4 12 2 12 -4 0 -6 5 -8 10
-5 6 4 8 21 4 40 -5 30 -3 34 37 56 58 32 89 93 88 168 -1 52 -1 54 -10 24 -5
-18 -21 -40 -34 -49 -23 -15 -27 -15 -68 5 -24 12 -48 21 -53 21 -28 0 -71 79
-73 136 -1 24 5 33 24 42 40 19 21 39 -48 50 -34 5 -73 9 -87 9 -14 1 -32 3
-40 4 -9 3 -14 -2 -12 -10 2 -8 -3 -18 -10 -22 -13 -8 29 -29 60 -29 26 0 47
-16 33 -24 -16 -10 -47 -74 -56 -113 -3 -18 -1 -58 5 -89 10 -47 20 -65 61
-106 l48 -48 -15 -42 c-19 -55 -32 -69 -60 -64 -13 3 -24 1 -24 -2 0 -4 -18
-6 -40 -4 -82 8 -442 -59 -563 -105 -66 -26 -68 -26 -83 -7 -15 19 88 -184
111 -218 31 -46 109 -102 158 -114 l52 -12 -48 -1 c-62 -1 -109 28 -167 105
-56 74 -180 317 -180 352 1 26 1 27 17 7 12 -15 14 -16 10 -3 -3 9 1 22 9 29
57 47 56 181 -1 229 -8 7 -5 -5 6 -27 34 -66 20 -135 -20 -99 -10 9 -22 16
-27 16 -19 0 -72 55 -78 80 -7 28 -1 39 33 63 l24 16 -27 7 c-34 8 -94 -9
-130 -37 -60 -47 -86 -161 -52 -227 20 -39 72 -82 108 -89 15 -3 31 -9 34 -14
3 -5 2 -47 -2 -95 l-7 -85 -101 -51 c-121 -60 -176 -112 -176 -167 0 -18 -2
-19 -30 -5 -29 15 -61 52 -73 87 -4 9 -13 17 -21 17 -9 0 -20 9 -26 21 -9 15
-15 18 -25 9 -9 -8 -15 -6 -20 7 -5 10 -7 22 -6 26 2 10 -68 77 -81 77 -5 0
-7 -4 -4 -9 3 -4 -1 -16 -8 -27 -8 -10 -12 -24 -9 -31 3 -7 0 -13 -7 -13 -7 0
-10 -8 -7 -20 4 -17 2 -18 -15 -9 -10 6 -22 18 -25 27 -4 9 -29 50 -57 90 -72
106 -209 225 -316 274 -47 22 -94 44 -105 49 -21 10 -103 27 -165 34 -70 8
-286 5 -335 -4 -48 -9 -65 -8 -53 5 3 3 50 12 104 20 71 11 143 14 254 11 199
-7 325 -39 469 -120 111 -63 107 -64 206 25 215 191 441 318 810 456 186 69
378 114 563 132 59 5 123 12 142 13 91 9 260 6 410 -8z m-3447 -9 c6 -14 -1
-26 -14 -26 -4 0 -7 9 -6 20 1 23 12 26 20 6z m462 -535 c-6 -5 -21 -11 -35
-15 -21 -5 -20 -3 5 9 35 17 42 18 30 6z m2666 -224 c-10 -9 -11 -8 -5 6 3 10
9 15 12 12 3 -3 0 -11 -7 -18z m2 -97 c-3 -12 -8 -19 -11 -16 -5 6 5 36 12 36
2 0 2 -9 -1 -20z m-1236 -443 c27 -30 27 -30 3 -16 -26 16 -120 173 -120 199
0 8 20 -23 44 -69 25 -46 57 -97 73 -114z m1463 124 c0 -5 -14 -21 -32 -36
-29 -25 -36 -26 -87 -20 -50 6 -109 37 -110 58 -1 4 51 7 114 7 63 0 115 -4
115 -9z m3570 -83 c22 -18 40 -38 40 -45 0 -7 10 -18 22 -24 23 -12 23 -12 -7
-22 -17 -5 -44 -20 -61 -33 l-31 -23 -14 27 c-8 15 -21 32 -29 39 -13 10 -12
14 8 33 13 12 22 33 22 50 0 17 3 30 6 30 3 0 23 -15 44 -32z m-3590 -55 l22
-28 -37 -3 c-23 -2 -46 3 -62 15 -14 10 -35 24 -47 30 -18 11 -13 13 41 13 55
0 64 -3 83 -27z m10 -93 c0 -12 -34 -12 -70 0 -20 7 -16 8 23 9 26 1 47 -3 47
-9z m1340 -34 c0 -3 -4 -8 -10 -11 -5 -3 -10 -1 -10 4 0 6 5 11 10 11 6 0 10
-2 10 -4z m20 -16 c0 -5 -5 -10 -11 -10 -5 0 -7 5 -4 10 3 6 8 10 11 10 2 0 4
-4 4 -10z m1537 -52 c-3 -8 -6 -5 -6 6 -1 11 2 17 5 13 3 -3 4 -12 1 -19z
m-1547 -12 c0 -8 5 -16 12 -18 8 -3 5 -11 -10 -23 -26 -23 -28 -35 -7 -35 20
0 19 -6 -6 -41 -19 -27 -19 -29 -2 -29 17 -1 17 -1 0 -11 -11 -7 -16 -17 -12
-28 4 -12 -3 -24 -19 -35 -29 -19 -40 -21 -30 -5 3 6 8 31 10 56 2 25 8 51 14
58 6 7 7 20 4 30 -5 11 -1 22 10 30 11 9 13 15 7 20 -8 4 -8 12 -1 26 12 22
30 25 30 5z m1568 -76 c0 -22 -1 -22 -8 5 -4 17 -8 39 -8 50 0 16 2 15 8 -5 4
-14 8 -36 8 -50z m-1252 -24 c3 -8 13 -13 22 -10 9 2 -1 -4 -23 -14 l-40 -19
38 2 c25 2 46 11 64 29 28 28 50 30 45 4 -2 -14 31 -32 52 -29 5 1 3 -6 -5
-15 -8 -10 -9 -15 -2 -11 7 4 14 -1 18 -13 3 -11 13 -20 21 -20 11 0 13 -6 9
-20 -7 -21 10 -29 18 -7 2 7 15 0 34 -20 17 -18 41 -33 53 -33 19 0 20 -2 10
-15 -10 -12 -10 -15 3 -15 8 0 17 -4 19 -10 2 -8 26 -15 59 -19 4 -1 6 -9 5
-18 0 -11 7 -18 19 -19 12 -1 31 -6 42 -13 19 -9 25 -8 43 11 12 13 21 19 20
13 -6 -27 26 -75 49 -75 6 0 11 -5 11 -11 0 -5 4 -8 9 -5 9 6 31 -37 31 -62 0
-13 -2 -14 -8 -4 -7 10 -15 10 -36 2 -16 -6 -24 -15 -20 -21 4 -8 9 -7 15 2 7
11 9 11 9 1 0 -7 5 -10 10 -7 6 3 14 -5 20 -19 7 -21 15 -25 37 -22 15 2 23 1
16 -1 -9 -3 -5 -16 12 -44 14 -21 23 -39 20 -39 -4 0 -3 -6 2 -12 4 -7 8 -19
8 -27 0 -8 6 -16 13 -18 18 -7 15 42 -4 61 -13 14 -13 18 -1 30 11 12 15 11
25 -5 7 -10 18 -19 26 -19 8 0 16 -6 19 -14 8 -19 -3 -57 -14 -50 -5 3 -9 0
-9 -5 0 -6 6 -11 14 -11 17 0 29 -27 16 -35 -17 -10 -11 -35 8 -36 13 0 11 -3
-6 -10 -26 -10 -20 -33 6 -25 10 3 24 1 32 -4 13 -9 13 -11 0 -20 -14 -9 -7
-14 13 -11 4 1 15 -15 23 -34 8 -19 19 -35 26 -35 12 0 68 -59 68 -72 0 -4 -6
-8 -14 -8 -8 0 -16 -6 -19 -14 -9 -22 35 -29 51 -9 13 18 12 20 16 -29 1 -7
-4 -12 -11 -11 -7 2 -10 -4 -7 -12 8 -21 -99 -176 -161 -233 -125 -116 -227
-183 -355 -234 -137 -55 -297 -79 -381 -58 -24 6 -53 12 -64 13 -11 1 -24 8
-29 16 -7 11 -10 11 -17 0 -8 -12 -10 -12 -18 0 -5 7 -13 11 -19 7 -6 -3 -13
-2 -17 4 -3 5 -13 10 -21 10 -8 0 -24 9 -36 20 -12 11 -30 20 -40 20 -10 0
-18 5 -18 10 0 6 -11 10 -25 10 -14 0 -28 7 -31 15 -4 9 -19 15 -39 15 -46 0
-99 24 -124 57 l-22 28 7 -35 c13 -69 65 -190 87 -202 44 -23 204 -59 293 -65
144 -9 321 23 489 91 154 62 293 163 506 366 l47 45 6 -59 c9 -85 7 -236 -4
-349 -15 -155 -77 -451 -118 -562 -20 -55 -37 -105 -37 -112 0 -6 -8 -19 -16
-30 -9 -10 -20 -28 -23 -40 -4 -13 -12 -23 -17 -23 -5 0 -9 -11 -9 -24 0 -14
-7 -31 -15 -39 -8 -8 -11 -18 -7 -22 4 -5 0 -6 -9 -3 -12 5 -15 1 -11 -17 3
-17 -1 -24 -15 -27 -12 -3 0 -11 37 -26 50 -21 44 -22 -17 -6 -14 4 -23 2 -23
-6 0 -6 -5 -8 -11 -5 -6 4 -13 -3 -16 -16 -6 -21 -7 -22 -13 -3 -6 15 -12 8
-34 -39 -14 -32 -32 -76 -39 -98 -10 -32 -15 -38 -32 -33 -13 4 -10 -2 10 -15
35 -24 18 -26 -40 -6 -48 18 -45 17 -45 6 0 -5 9 -13 20 -16 25 -8 27 -25 2
-18 -14 3 -23 -6 -37 -37 -10 -23 -27 -46 -37 -51 -24 -13 -23 -5 7 39 37 54
30 59 -15 11 -22 -23 -40 -46 -40 -50 0 -19 13 -39 26 -39 26 0 14 -32 -23
-67 -73 -67 -113 -82 -78 -30 29 44 -2 40 -50 -8 -26 -25 -51 -43 -55 -40 -5
3 -11 1 -15 -5 -3 -5 -2 -10 4 -10 11 0 3 -31 -10 -40 -4 -3 17 -26 48 -50 86
-70 113 -96 58 -56 -27 20 -70 48 -94 63 -43 25 -45 25 -55 7 -35 -63 -146
-140 -259 -180 -32 -11 -46 -22 -43 -30 6 -15 -30 -54 -49 -54 -6 0 -27 -12
-48 -26 -31 -20 -41 -23 -53 -14 -11 10 -14 9 -14 -4 0 -18 -22 -21 -48 -6
-13 8 -44 1 -127 -28 -92 -33 -109 -42 -107 -58 2 -11 3 -26 4 -34 1 -8 9 -26
19 -39 10 -13 16 -27 13 -32 -8 -14 -44 -11 -41 3 1 7 -8 14 -20 16 -16 2 -20
-1 -17 -15 3 -12 -7 -25 -32 -40 -41 -27 -60 -29 -67 -9 -4 10 3 16 21 18 l27
4 -27 12 c-29 12 -40 26 -13 16 17 -7 70 4 62 12 -6 6 -33 12 -58 13 -13 1
-20 18 -29 69 -15 85 -36 154 -66 214 -13 26 -24 50 -24 52 0 7 104 56 118 56
6 0 33 12 59 28 26 15 60 34 76 41 15 8 27 18 27 23 0 4 9 8 20 8 12 0 31 7
43 15 13 8 32 16 42 18 30 5 67 27 98 58 15 16 32 29 37 29 6 0 10 5 10 10 0
6 8 14 18 17 24 10 83 74 76 84 -3 5 2 9 11 9 9 0 14 4 11 9 -11 17 5 43 19
31 17 -14 25 -2 25 38 0 31 2 33 17 21 15 -13 15 -12 5 8 -7 12 -12 30 -12 40
0 11 -14 38 -31 62 -26 34 -29 45 -19 54 10 9 11 9 5 -1 -7 -14 82 -109 93
-98 3 3 14 -2 25 -11 18 -17 18 -17 1 27 -10 25 -24 51 -32 59 -10 11 -11 16
-1 21 6 5 10 19 7 33 -4 19 -1 24 10 19 10 -3 13 -1 8 7 -4 6 -16 9 -27 6 -13
-4 -19 -2 -19 9 0 10 -9 16 -22 16 -13 0 -43 6 -68 14 -41 13 -43 14 -20 20
36 10 62 10 88 2 26 -9 28 2 6 30 -8 10 -13 13 -9 7 3 -7 2 -13 -2 -13 -5 0
-16 18 -26 40 -11 27 -23 40 -36 40 -11 0 -23 5 -26 10 -3 6 1 10 9 10 55 0
-46 56 -124 69 l-55 9 45 1 c33 1 41 4 30 11 -21 14 -103 13 -94 -1 3 -6 -7
-4 -24 5 -27 14 -31 14 -43 0 -9 -11 -22 -14 -41 -10 -18 3 -27 2 -23 -4 3 -6
12 -10 20 -10 8 0 17 -5 21 -11 4 -8 -1 -9 -15 -4 -12 4 -27 2 -34 -3 -17 -14
-96 -7 -131 11 -18 10 -41 14 -60 10 -56 -10 -16 13 96 56 132 52 255 88 375
110 101 19 137 35 57 25 -139 -16 -449 -101 -554 -151 -19 -10 -39 -16 -44
-15 -4 2 -14 -5 -21 -14 -7 -10 -19 -15 -28 -11 -9 3 -16 2 -14 -3 1 -5 -7
-16 -18 -25 -19 -16 -19 -16 9 -10 33 7 86 -2 86 -16 0 -5 -3 -8 -8 -7 -4 2
-18 -7 -30 -18 l-24 -22 50 -3 c28 -2 48 0 45 5 -3 4 9 5 26 1 21 -4 31 -3 31
5 0 8 8 10 22 7 12 -4 28 -1 36 5 10 9 16 8 22 -3 8 -12 11 -11 22 4 24 33
310 47 357 18 24 -15 -16 -20 -76 -11 -32 6 -69 10 -83 10 -24 -1 -24 -1 6
-14 17 -8 62 -24 100 -37 38 -13 80 -34 94 -47 25 -23 25 -23 -26 2 -29 15
-67 26 -85 25 -32 -1 -32 -2 -9 -9 23 -7 23 -8 -9 -9 -26 -1 -32 2 -27 15 5
13 -4 15 -67 14 -39 0 -119 2 -177 6 -85 5 -115 3 -154 -10 -68 -23 -95 -59
-55 -71 l21 -7 -22 -15 c-15 -11 -20 -23 -17 -39 2 -13 1 -24 -2 -24 -3 0 -12
-9 -19 -20 -10 -17 -10 -21 0 -24 7 -2 58 -17 113 -34 55 -17 138 -42 185 -56
83 -24 284 -117 325 -150 18 -14 16 -14 -20 0 -22 9 -78 35 -125 59 -79 39
-144 64 -345 128 -144 46 -162 44 -194 -26 -11 -23 -34 -57 -53 -76 -48 -49
-139 -117 -168 -126 -14 -4 -30 -11 -35 -16 -24 -18 -54 -5 -60 26 -4 16 -13
44 -21 62 -22 49 -30 98 -14 88 8 -5 11 -4 6 3 -3 6 -16 11 -29 11 -50 1 -57
3 -58 14 -3 30 7 45 71 104 37 34 70 72 73 82 5 19 -14 46 -25 36 -3 -3 -11 1
-18 10 -7 8 -23 15 -35 15 -12 0 -28 7 -35 15 -7 8 -16 12 -22 9 -5 -3 -15 0
-23 6 -8 7 -15 9 -15 4 0 -5 -7 2 -16 15 -11 15 -23 21 -35 18 -11 -3 -19 -1
-19 5 0 6 -11 8 -24 4 -14 -3 -27 -2 -30 3 -3 5 -18 12 -32 15 -32 8 -50 26
-56 52 -2 11 -11 18 -22 18 -16 -2 -16 0 -2 15 23 25 21 51 -4 46 -11 -2 -18
0 -15 6 4 5 16 9 28 9 13 0 17 3 11 8 -14 9 -25 52 -13 52 5 0 9 -7 9 -15 0
-33 15 -12 17 23 1 26 -1 31 -6 17 -8 -19 -8 -19 -19 2 -16 28 -16 54 -1 33 9
-12 10 -11 6 8 -3 12 -3 22 -1 22 3 0 9 -10 14 -22 8 -22 9 -22 9 4 1 14 7 29
14 31 7 4 6 6 -4 6 -13 1 -16 10 -13 49 3 35 2 42 -5 27 -5 -11 -10 -30 -10
-42 -1 -14 -7 -23 -16 -23 -12 0 -13 4 -5 19 15 29 13 51 -5 45 -8 -4 -15 -1
-15 5 0 6 -7 11 -15 11 -8 0 -15 5 -15 10 0 6 -4 10 -10 10 -5 0 -10 -9 -10
-20 0 -11 -4 -20 -10 -20 -5 0 -10 9 -10 21 0 21 22 49 38 49 12 0 22 24 22
51 0 13 6 19 16 17 17 -3 24 22 25 86 0 16 4 36 9 45 7 12 10 6 11 -24 2 -32
3 -34 6 -12 3 16 -3 44 -12 63 -11 23 -15 54 -13 98 3 62 18 84 18 26 0 -16 4
-31 9 -34 5 -4 13 -41 17 -84 4 -42 10 -69 12 -59 2 9 8 15 13 12 12 -8 3 72
-18 153 -8 34 -13 71 -10 82 3 11 0 20 -6 20 -8 0 -7 3 1 9 10 6 11 16 4 42
-9 29 -10 31 -11 9 -1 -20 -3 -22 -11 -10 -5 8 -10 47 -11 85 -1 87 -16 144
-19 75 -2 -39 -4 -34 -16 40 -8 46 -19 89 -24 94 -6 6 -11 28 -11 51 l-2 40
-6 -35 c-6 -30 -9 -20 -29 75 -27 138 -41 185 -52 185 -5 0 -14 26 -20 58 -7
31 -21 73 -31 92 l-19 35 3 -30 c2 -16 6 -37 9 -45 21 -55 60 -266 55 -293 -4
-19 -4 -19 -6 5 -2 44 -47 201 -71 248 -21 42 -78 130 -100 157 -6 7 -20 30
-32 50 l-22 38 30 -31 c35 -38 74 -90 74 -101 0 -4 9 -19 20 -33 15 -20 20
-21 20 -8 0 9 -5 20 -10 23 -6 4 -8 16 -5 28 4 15 3 18 -3 9 -7 -11 -11 -8
-16 12 -3 14 -11 26 -16 26 -6 0 -10 6 -10 13 0 6 -14 25 -30 41 -33 30 -75
104 -66 114 3 3 1 11 -5 19 -22 26 1 13 42 -24 43 -39 73 -90 89 -150 9 -35 9
-34 5 14 -3 29 -17 71 -30 95 -30 52 -32 69 -5 37 l20 -24 -10 28 c-14 41 6
34 28 -10 11 -21 36 -69 57 -108 30 -57 36 -63 31 -35 -9 45 -25 79 -50 108
-11 12 -21 28 -22 35 -1 6 -5 20 -9 30 -4 9 -3 17 2 17 16 0 42 -39 58 -87 13
-43 15 -44 12 -13 -2 19 -8 44 -12 55 -8 17 -7 18 7 7 13 -10 16 -9 21 8 4 16
11 20 31 16 14 -2 27 1 30 7 3 8 8 8 15 -3 9 -13 12 -13 20 -1 18 28 41 4 42
-46 l2 -48 7 43 c9 60 50 83 50 29 0 -19 3 -17 21 12 14 24 23 31 28 22 6 -10
17 -10 47 -2 25 7 40 7 44 0 4 -5 14 -7 23 -3 10 3 17 1 17 -5 0 -8 6 -9 19
-2 17 10 139 8 191 -3 14 -3 45 -7 70 -10 160 -19 253 -54 343 -128 26 -22 47
-34 47 -27 0 8 4 8 15 -1 8 -7 12 -16 9 -21 -3 -5 1 -9 9 -9 7 0 19 -11 25
-25 9 -18 19 -25 41 -25 16 0 32 6 34 13 3 7 6 4 6 -6 1 -16 6 -17 32 -12 l32
7 -22 -31 c-12 -17 -30 -31 -39 -30 -13 0 -11 3 6 11 34 17 27 28 -18 28 -40
0 -52 -12 -26 -27 8 -4 14 -17 13 -28 -1 -12 5 -20 18 -23 11 -2 30 -8 42 -14
12 -6 36 -8 53 -4 23 4 30 2 28 -7 -3 -6 -14 -13 -26 -15 -11 -2 -26 -10 -34
-19 -12 -15 -10 -16 19 -10 36 7 51 -6 33 -28 -14 -17 -8 -19 45 -15 29 2 95
57 95 80 0 5 11 34 25 65 13 31 22 61 19 69 -7 17 -11 166 -5 172 3 2 6 12 7
22 1 9 9 44 19 77 17 63 34 90 42 67 3 -8 11 -5 24 10 10 13 18 17 19 11 0 -7
5 -13 11 -13 5 0 8 4 5 9 -3 5 9 18 27 30 17 11 28 21 22 21 -5 0 -3 5 5 10
13 9 13 12 -1 23 -14 10 -14 14 -3 25 15 14 28 16 20 4 -8 -14 31 -7 49 8 11
9 13 16 5 24 -16 16 -12 26 11 26 12 0 18 4 13 11 -3 6 0 15 7 20 20 12 29 11
35 -5z m1261 -38 c-3 -8 -6 -5 -6 6 -1 11 2 17 5 13 3 -3 4 -12 1 -19z m-2697
-38 c167 -14 242 -28 360 -66 110 -35 152 -65 177 -125 14 -32 9 -33 -112 -8
-241 49 -570 77 -940 80 -134 2 -137 2 -85 13 30 7 63 16 73 20 21 10 23 31 2
23 -8 -4 -17 -2 -20 3 -4 6 -1 10 6 10 6 0 18 8 25 18 13 16 14 16 7 -3 -6
-17 -5 -18 9 -5 19 18 12 41 -9 33 -11 -4 -14 -2 -9 5 9 15 350 16 516 2z
m2707 -37 c-3 -10 -5 -2 -5 17 0 19 2 27 5 18 2 -10 2 -26 0 -35z m0 -55 c-3
-7 -5 -2 -5 12 0 14 2 19 5 13 2 -7 2 -19 0 -25z m-6442 -24 c-8 -9 -20 -12
-26 -9 -6 5 -4 12 8 20 23 17 38 8 18 -11z m-137 -16 c15 2 32 -5 44 -18 11
-12 27 -19 35 -16 9 4 13 1 10 -6 -8 -23 13 -48 41 -48 44 0 74 -11 68 -26 -3
-7 -1 -16 4 -19 6 -4 10 -2 10 3 0 5 11 15 25 22 25 13 24 36 -2 26 -9 -4 -11
-2 -7 6 5 7 -1 9 -19 6 -16 -3 -31 0 -38 9 -7 8 -20 11 -32 7 -16 -5 -19 -3
-14 11 4 9 7 21 7 27 0 5 12 0 27 -11 19 -16 34 -20 58 -15 25 4 34 2 39 -11
3 -10 12 -15 20 -12 15 6 36 -38 36 -76 0 -14 -5 -18 -20 -14 -24 6 -25 1 -3
-21 12 -12 18 -13 21 -4 2 7 8 9 13 6 6 -4 6 -11 -1 -19 -8 -9 -8 -15 0 -20 5
-3 10 -17 10 -31 0 -22 3 -24 37 -20 24 2 42 -2 51 -11 22 -21 36 6 16 28 -14
15 -14 18 1 26 25 14 8 43 -26 43 -36 0 -37 9 -4 34 30 23 33 40 5 31 -11 -4
-20 -2 -20 4 0 6 5 11 11 11 6 0 9 7 5 15 -3 9 0 15 8 15 8 0 16 -6 19 -14 3
-7 17 -13 31 -13 15 0 34 -11 46 -24 12 -14 18 -17 14 -8 -7 21 14 35 29 20 8
-8 8 -11 -2 -11 -7 0 -11 -6 -8 -14 4 -10 -4 -18 -21 -25 -15 -5 -20 -10 -12
-10 38 -2 69 -132 35 -145 -8 -3 -15 -14 -15 -25 0 -17 -3 -18 -37 -8 -28 9
-37 9 -41 -1 -2 -7 -10 -12 -18 -12 -9 0 -12 -5 -8 -11 3 -6 19 -9 35 -5 33 6
49 -9 19 -19 -11 -3 -20 -11 -20 -16 0 -5 -7 -9 -15 -9 -8 0 -15 7 -15 15 0 8
-9 19 -20 25 -16 9 -20 8 -20 -5 0 -8 4 -15 9 -15 14 0 20 -37 8 -49 -6 -6
-19 -11 -28 -11 -12 0 -16 -6 -12 -21 4 -16 11 -19 29 -15 13 4 24 3 24 -2 0
-5 -6 -9 -12 -10 -70 -10 -76 -9 -71 4 3 8 0 14 -6 14 -15 0 -14 -33 2 -49 10
-10 9 -11 -3 -6 -9 3 -19 -3 -25 -17 -11 -25 -42 -40 -33 -16 7 16 -27 42 -42
33 -19 -11 -11 -45 10 -45 13 0 17 -5 14 -14 -3 -8 -1 -24 6 -35 13 -24 -4
-30 -18 -6 -6 13 -14 14 -34 6 -14 -5 -29 -15 -33 -20 -10 -17 -55 -14 -49 4
4 10 0 13 -15 10 -12 -2 -26 -7 -31 -10 -21 -13 -31 7 -11 22 23 15 29 48 9
40 -7 -2 -12 -12 -12 -21 2 -24 -14 -20 -42 11 -18 20 -24 36 -22 55 3 16 1
28 -3 28 -7 0 -20 33 -24 63 -1 10 -5 20 -9 24 -3 3 -1 12 5 20 9 10 8 18 -5
32 -13 15 -14 20 -4 24 9 4 7 9 -7 20 -25 18 -32 72 -11 80 10 4 13 1 9 -9 -4
-10 2 -14 21 -14 24 0 25 2 16 20 -6 11 -14 20 -18 20 -4 0 -13 14 -19 30 -8
21 -8 28 0 23 6 -4 8 0 4 9 -3 9 -1 20 5 26 13 13 -9 11 -30 -2 -21 -13 -27 2
-9 22 10 10 17 26 17 35 0 9 5 17 11 17 6 0 9 6 6 13 -3 8 -1 20 3 27 5 8 3
26 -6 44 -15 30 -14 30 3 11 11 -12 27 -19 41 -17z m302 22 c0 -5 -8 -10 -17
-10 -15 0 -16 2 -3 10 19 12 20 12 20 0z m4640 -19 c0 -6 -4 -13 -10 -16 -5
-3 -10 1 -10 9 0 9 5 16 10 16 6 0 10 -4 10 -9z m-4650 -31 c0 -5 -5 -10 -11
-10 -5 0 -7 5 -4 10 3 6 8 10 11 10 2 0 4 -4 4 -10z m56 -37 c-10 -10 -19 5
-10 18 6 11 8 11 12 0 2 -7 1 -15 -2 -18z m34 -63 c0 -5 -2 -10 -4 -10 -3 0
-8 5 -11 10 -3 6 -1 10 4 10 6 0 11 -4 11 -10z m2598 -20 c57 -41 53 -46 -8
-8 -27 17 -50 33 -50 34 0 11 21 1 58 -26z m66 0 c19 -19 19 -19 -5 -13 -13 3
-35 15 -49 26 l-25 20 30 -7 c17 -4 39 -16 49 -26z m79 12 c10 -10 15 -21 12
-24 -3 -2 2 -5 10 -5 11 0 13 7 8 26 -8 34 0 26 27 -29 12 -25 16 -39 9 -32
-7 6 -18 12 -23 12 -6 0 2 -11 17 -25 15 -14 27 -28 27 -31 0 -10 -51 30 -61
47 -5 11 -16 16 -24 13 -10 -4 -15 0 -15 15 0 12 -4 21 -10 21 -5 0 -10 7 -10
15 0 20 13 19 33 -3z m147 -44 c29 -61 43 -116 19 -75 -6 9 -14 15 -19 12 -5
-3 -12 0 -16 6 -4 8 -3 9 4 5 17 -10 15 -1 -8 36 -18 30 -27 78 -15 78 3 0 19
-28 35 -62z m-330 27 c19 -23 9 -25 -30 -4 -33 18 -34 19 -9 19 15 0 32 -7 39
-15z m-2527 -66 c-12 -12 -26 -18 -33 -14 -8 5 -4 11 12 20 36 20 45 17 21 -6z
m5552 11 c3 -5 2 -10 -4 -10 -5 0 -13 5 -16 10 -3 6 -2 10 4 10 5 0 13 -4 16
-10z m-6025 -15 c-7 -9 -15 -13 -17 -11 -7 7 7 26 19 26 6 0 6 -6 -2 -15z
m4635 -15 c3 -5 1 -10 -4 -10 -6 0 -11 5 -11 10 0 6 2 10 4 10 3 0 8 -4 11
-10z m-1247 -111 c-3 -8 -7 -3 -11 10 -4 17 -3 21 5 13 5 -5 8 -16 6 -23z
m1457 21 c-3 -5 -11 -10 -16 -10 -6 0 -7 5 -4 10 3 6 11 10 16 10 6 0 7 -4 4
-10z m-1430 -80 c17 -33 19 -44 6 -36 -10 6 -33 66 -26 66 3 0 11 -13 20 -30z
m105 -175 c0 -17 -2 -17 -10 -5 -5 8 -10 24 -10 35 0 17 2 17 10 5 5 -8 10
-24 10 -35z m-580 -72 c40 -13 61 -28 94 -67 72 -87 73 -91 8 -43 -35 26 -80
51 -100 57 -48 13 -163 13 -198 0 -57 -22 -101 -28 -101 -14 0 13 93 54 123
54 8 0 17 7 20 15 8 21 87 20 154 -2z m-2554 -47 c-1 -30 -26 -32 -26 -3 0 14
-3 33 -7 43 -6 15 -4 15 13 -2 11 -10 20 -28 20 -38z m-196 15 c0 -5 -9 -11
-20 -14 -22 -6 -28 8 -7 16 19 8 27 8 27 -2z m3427 -13 c-3 -8 -6 -5 -6 6 -1
11 2 17 5 13 3 -3 4 -12 1 -19z m-3367 8 c0 -3 -4 -8 -10 -11 -5 -3 -10 -1
-10 4 0 6 5 11 10 11 6 0 10 -2 10 -4z m55 -16 c-3 -5 -14 -10 -23 -9 -14 0
-13 2 3 9 27 11 27 11 20 0z m75 -40 c0 -5 -4 -10 -10 -10 -5 0 -10 5 -10 10
0 6 5 10 10 10 6 0 10 -4 10 -10z m3207 -77 c-3 -10 -5 -2 -5 17 0 19 2 27 5
18 2 -10 2 -26 0 -35z m-557 -51 c24 -15 52 -42 63 -59 l19 -33 -55 26 c-151
68 -314 39 -426 -77 -43 -45 -86 -125 -96 -181 -9 -47 -22 -48 -41 -3 -28 67
-20 104 40 175 70 85 120 124 199 155 123 49 213 49 297 -3z m-4093 -14 c-3
-7 -5 -2 -5 12 0 14 2 19 5 13 2 -7 2 -19 0 -25z m-10 -50 c-3 -7 -5 -2 -5 12
0 14 2 19 5 13 2 -7 2 -19 0 -25z m4752 -15 c-1 -38 -1 -38 -9 -9 -8 27 -6 46
6 46 2 0 4 -17 3 -37z m-4774 -135 c-41 -295 -41 -729 0 -1078 87 -731 381
-1523 804 -2160 71 -106 268 -374 342 -463 18 -22 26 -38 18 -36 -22 4 -50
-12 -42 -25 19 -34 -103 91 -160 164 -85 108 -300 426 -371 548 -112 194 -285
544 -351 712 -266 673 -376 1293 -348 1974 7 170 15 271 22 280 7 8 10 26 7
40 -3 15 0 25 6 23 10 -2 18 27 20 70 0 28 18 20 18 -8 0 -42 25 -11 34 42 16
99 17 33 1 -83z m4782 60 c-3 -8 -6 -5 -6 6 -1 11 2 17 5 13 3 -3 4 -12 1 -19z
m40 -45 c-3 -10 -5 -2 -5 17 0 19 2 27 5 18 2 -10 2 -26 0 -35z m-641 -10 c29
-31 41 -70 26 -85 -7 -7 -14 -4 -21 11 -9 15 -21 21 -46 21 -46 0 -64 31 -35
60 27 27 46 25 76 -7z m621 -55 c-2 -13 -4 -5 -4 17 -1 22 1 32 4 23 2 -10 2
-28 0 -40z m10 -60 c-3 -8 -6 -5 -6 6 -1 11 2 17 5 13 3 -3 4 -12 1 -19z
m-2027 -37 c0 -16 -25 -28 -70 -34 -25 -3 -64 -15 -87 -26 -63 -31 -125 -45
-166 -37 -49 9 -40 22 23 30 54 7 269 62 278 71 8 8 22 6 22 -4z m-811 -76
c126 -23 129 -24 127 -37 -1 -17 7 -19 44 -12 16 4 27 10 24 15 -3 5 16 8 43
8 26 -1 40 -3 30 -6 -37 -9 -44 -93 -8 -93 9 -1 27 -7 41 -16 l25 -15 -25 7
c-21 6 -17 0 20 -35 24 -22 50 -41 56 -41 20 0 27 19 14 35 -11 13 -7 15 26
15 22 0 58 -5 82 -10 41 -10 92 -18 120 -19 23 -2 3 -19 -29 -26 -43 -10 -117
-43 -125 -57 -5 -8 -2 -9 12 -3 61 26 119 9 75 -21 -12 -8 -21 -21 -21 -29 0
-8 -20 -28 -45 -46 -41 -30 -56 -49 -37 -49 4 0 26 11 50 25 29 16 42 20 42
11 0 -8 -7 -19 -15 -26 -17 -14 -21 -35 -5 -25 6 4 -3 -16 -20 -44 -16 -28
-27 -51 -25 -51 3 0 -2 -11 -11 -25 -17 -26 -8 -34 15 -12 11 10 11 8 1 -11
-6 -13 -9 -26 -6 -29 3 -3 1 -14 -5 -24 -7 -15 -6 -19 6 -19 8 0 15 -4 15 -10
0 -5 10 -10 22 -10 l22 0 -22 -20 c-24 -22 -29 -40 -11 -40 6 0 9 -6 6 -12 -2
-7 2 -28 9 -46 7 -18 11 -39 8 -46 -3 -8 3 -23 14 -34 10 -10 22 -32 26 -47 4
-15 10 -25 13 -21 3 3 18 -18 32 -47 44 -86 53 -97 77 -91 18 5 21 1 22 -26 1
-39 7 -46 25 -32 11 9 17 4 30 -23 11 -23 21 -33 31 -29 8 3 19 -3 25 -15 21
-39 158 -161 180 -161 7 0 52 -29 99 -65 48 -36 93 -65 99 -65 15 0 18 -36 4
-42 -14 -5 -91 -120 -91 -135 0 -9 -11 -13 -36 -11 -39 2 -59 18 -23 18 32 0
15 12 -56 39 -33 13 -71 34 -85 47 -14 12 -45 36 -69 52 -41 28 -161 157 -161
175 0 4 -7 7 -16 7 -14 0 -15 2 -3 17 12 15 12 16 -2 11 -11 -4 -28 5 -50 28
-18 19 -38 34 -45 34 -6 0 -14 9 -17 19 -4 17 -11 19 -48 14 -24 -3 -60 -12
-79 -19 l-35 -14 33 26 c21 17 32 34 32 51 0 18 4 24 15 20 27 -11 26 12 -3
43 -18 18 -36 28 -44 25 -20 -8 -80 72 -73 96 4 12 -17 53 -57 113 -56 85 -66
96 -92 96 -28 0 -29 1 -10 14 19 14 19 15 -2 38 -90 97 -218 427 -243 625 -5
40 -16 86 -24 102 -9 17 -13 31 -10 31 4 0 45 -7 92 -15z m2833 -20 c3 -14 1
-25 -3 -25 -5 0 -9 11 -9 25 0 14 2 25 4 25 2 0 6 -11 8 -25z m3935 -31 c28 6
28 6 28 -44 0 -50 0 -50 -32 -50 -18 0 -48 11 -68 24 -34 24 -35 25 -15 36 12
7 20 21 20 37 0 25 1 25 19 9 14 -13 28 -16 48 -12z m-5468 -28 c70 -34 113
-58 121 -66 3 -3 17 -13 32 -23 16 -10 27 -22 25 -28 -3 -18 125 -59 263 -84
89 -17 170 -24 277 -26 84 -2 150 -6 147 -11 -3 -4 -1 -8 5 -8 5 0 12 4 16 9
12 20 66 9 83 -17 15 -22 14 -25 -3 -34 -16 -10 -14 -12 15 -25 25 -10 35 -11
41 -2 9 14 70 -26 68 -44 -3 -19 12 -47 22 -42 4 3 6 12 2 20 -6 18 18 20 35
3 9 -9 12 -9 12 1 0 8 14 -3 30 -24 31 -39 37 -50 20 -40 -5 3 -10 -3 -10 -14
0 -12 -7 -21 -16 -21 -8 0 -12 -4 -9 -10 3 -5 2 -10 -4 -10 -5 0 -12 8 -16 19
-9 30 -40 52 -80 57 -20 2 -50 11 -66 20 -28 14 -30 14 -27 -3 2 -12 -3 -18
-17 -18 -11 0 -23 -5 -28 -12 -4 -7 -26 -11 -48 -10 -24 1 -43 -4 -48 -12 -5
-8 -13 -11 -19 -7 -5 3 -25 0 -43 -8 l-33 -14 35 -22 c41 -27 36 -25 -121 43
-116 51 -262 96 -405 127 -48 10 -56 14 -40 21 15 7 10 8 -15 4 -19 -2 -42 0
-50 6 -12 8 -10 9 7 4 18 -5 20 -3 16 15 -4 15 -11 20 -24 17 -11 -3 -17 -1
-14 3 3 5 -3 11 -12 14 -10 3 1 4 25 2 30 -3 42 -1 39 7 -4 13 -65 14 -152 3
-49 -6 -50 -6 -21 9 15 8 40 16 55 16 17 1 20 3 8 6 -9 2 -15 8 -12 13 3 5
-14 14 -37 20 -24 6 -57 17 -73 25 -17 8 -43 18 -58 24 -15 6 -27 15 -27 21 0
5 -10 10 -22 10 -13 0 -30 5 -38 10 -13 9 -12 12 4 22 20 11 17 13 -107 42
-35 8 -26 26 13 26 34 0 62 9 56 19 -3 4 32 8 76 8 72 1 88 -2 147 -31z m-666
-52 c-3 -8 1 -14 8 -14 8 0 5 -6 -7 -15 -20 -15 -78 -18 -129 -6 l-30 8 28 13
c15 7 27 17 27 22 0 5 12 7 28 4 15 -3 33 -2 41 3 19 12 41 3 34 -15z m427 -6
l35 -4 -28 -8 c-17 -5 -44 -3 -73 5 -45 13 -45 14 -18 20 16 3 34 2 39 -2 6
-4 26 -9 45 -11z m1787 -10 c-3 -8 -6 -5 -6 6 -1 11 2 17 5 13 3 -3 4 -12 1
-19z m-27 -38 c0 -5 -5 -10 -11 -10 -5 0 -7 5 -4 10 3 6 8 10 11 10 2 0 4 -4
4 -10z m-1423 -156 c-3 -3 -12 -4 -19 -1 -8 3 -5 6 6 6 11 1 17 -2 13 -5z
m1330 -46 c-3 -8 -6 -5 -6 6 -1 11 2 17 5 13 3 -3 4 -12 1 -19z m-4164 -68 c4
-14 14 -20 34 -20 l28 -1 -27 -20 c-20 -14 -28 -30 -28 -50 0 -32 -11 -37 -30
-14 -7 8 -28 15 -46 15 -37 0 -43 10 -18 31 10 8 13 21 9 36 -5 21 -3 23 20
17 18 -4 27 -2 31 10 8 22 21 20 27 -4z m3971 4 c10 -25 1 -27 -19 -4 -15 17
-16 20 -3 20 9 0 19 -7 22 -16z m-974 -4 c0 -5 -5 -10 -11 -10 -5 0 -7 5 -4
10 3 6 8 10 11 10 2 0 4 -4 4 -10z m80 -4 c0 -11 -19 -15 -25 -6 -3 5 1 10 9
10 9 0 16 -2 16 -4z m-53 -22 c-3 -3 -12 -4 -19 -1 -8 3 -5 6 6 6 11 1 17 -2
13 -5z m261 -28 c37 -13 90 -35 117 -50 28 -15 41 -24 30 -21 -11 4 -32 11
-46 15 -14 4 -36 13 -49 20 -12 7 -41 14 -63 16 -22 2 -58 13 -81 23 -22 11
-48 22 -56 25 -46 17 91 -9 148 -28z m-143 4 c-3 -5 -12 -10 -18 -10 -7 0 -6
4 3 10 19 12 23 12 15 0z m22 -26 c-3 -3 -12 -4 -19 -1 -8 3 -5 6 6 6 11 1 17
-2 13 -5z m-242 -75 c270 -24 367 -41 585 -101 80 -22 172 -46 205 -52 68 -13
64 -28 -5 -16 -25 4 -126 28 -225 53 -373 96 -818 136 -1140 102 -49 -5 -49
-4 -11 5 106 28 345 31 591 9z m835 11 c8 -5 11 -12 7 -16 -4 -4 -15 0 -24 9
-18 18 -8 23 17 7z m-1487 -37 c-7 -2 -19 -2 -25 0 -7 3 -2 5 12 5 14 0 19 -2
13 -5z m1436 -29 c23 -21 23 -22 3 -28 -26 -9 -99 21 -99 40 0 8 6 13 13 10 8
-3 16 -1 19 4 7 12 34 1 64 -26z m-1492 20 c-3 -3 -12 -4 -19 -1 -8 3 -5 6 6
6 11 1 17 -2 13 -5z m1628 -44 c3 -5 2 -10 -4 -10 -5 0 -13 5 -16 10 -3 6 -2
10 4 10 5 0 13 -4 16 -10z m-3140 -60 c3 -5 1 -10 -4 -10 -6 0 -11 5 -11 10 0
6 2 10 4 10 3 0 8 -4 11 -10z m890 -60 c-3 -5 -13 -10 -21 -10 -8 0 -12 5 -9
10 3 6 13 10 21 10 8 0 12 -4 9 -10z m1912 -41 c71 -6 135 -15 143 -20 9 -6
-4 -7 -35 -2 -82 13 -446 6 -650 -11 -211 -18 -307 -34 -439 -72 -48 -14 -90
-23 -92 -21 -8 8 175 58 280 77 92 16 328 37 591 53 28 2 56 4 62 5 7 1 70 -3
140 -9z m1966 -46 c-5 -12 -21 -12 -258 -2 l-40 2 40 7 c70 12 263 7 258 -7z
m132 -2 l40 -9 -45 0 c-25 0 -58 4 -75 8 l-30 8 35 0 c19 1 53 -3 75 -7z
m-118 -37 c-3 -3 -12 -4 -19 -1 -8 3 -5 6 6 6 11 1 17 -2 13 -5z m148 -14 l30
-8 -35 0 c-19 0 -46 4 -60 8 -24 8 -24 8 5 8 17 0 44 -4 60 -8z m85 -41 c0
-14 -11 -11 -32 8 -27 24 -22 36 7 17 14 -9 25 -20 25 -25z m1110 19 c10 -6 7
-7 -10 -2 -14 3 -32 11 -40 16 -10 6 -7 7 10 2 14 -3 32 -11 40 -16z m-1045
-39 c11 -17 -1 -21 -15 -4 -8 9 -8 15 -2 15 6 0 14 -5 17 -11z m-2242 -6 c-7
-2 -19 -2 -25 0 -7 3 -2 5 12 5 14 0 19 -2 13 -5z m-46 -9 c-3 -3 -12 -4 -19
-1 -8 3 -5 6 6 6 11 1 17 -2 13 -5z m-52 -14 c-11 -5 -27 -9 -35 -9 -9 0 -8 4
5 9 11 5 27 9 35 9 9 0 8 -4 -5 -9z m-3164 -33 c-13 -13 -26 -3 -16 12 3 6 11
8 17 5 6 -4 6 -10 -1 -17z m2399 -427 c0 -5 -4 -10 -10 -10 -5 0 -10 5 -10 10
0 6 5 10 10 10 6 0 10 -4 10 -10z m1961 -31 c23 -23 23 -21 -38 -92 -18 -20
-33 -44 -33 -52 0 -8 -4 -15 -9 -15 -5 0 -12 -11 -15 -25 -4 -14 -14 -29 -23
-32 -9 -4 -32 -23 -52 -44 -20 -20 -47 -43 -61 -50 -29 -16 -60 -20 -60 -8 0
5 5 9 11 9 5 0 7 5 4 10 -4 6 -11 8 -16 5 -5 -4 -9 3 -9 14 0 12 6 21 14 21 8
0 17 8 20 18 3 9 31 42 62 72 31 30 64 71 75 91 27 54 68 99 90 99 10 0 28 -9
40 -21z m-271 -74 c10 -13 9 -19 -6 -36 -25 -28 -67 -49 -99 -49 -28 0 -29 3
-15 30 12 22 78 70 96 70 6 0 17 -7 24 -15z m1935 -55 c10 -11 16 -20 13 -20
-3 0 -13 9 -23 20 -10 11 -16 20 -13 20 3 0 13 -9 23 -20z m105 -97 l75 -78
-77 75 c-72 69 -83 80 -75 80 1 0 36 -35 77 -77z m1928 -161 c2 -7 -6 -12 -17
-12 -21 0 -27 11 -14 24 9 9 26 2 31 -12z m-2818 -36 c0 -3 -4 -8 -10 -11 -5
-3 -10 -1 -10 4 0 6 5 11 10 11 6 0 10 -2 10 -4z m-50 -36 c0 -5 -7 -10 -16
-10 -8 0 -12 5 -9 10 3 6 10 10 16 10 5 0 9 -4 9 -10z m-1104 -204 c40 -14 78
-15 90 -3 4 4 13 -1 20 -11 10 -14 17 -15 42 -6 27 11 29 10 29 -17 0 -20 -6
-29 -16 -29 -14 -1 -13 -3 2 -14 17 -13 17 -15 -2 -49 -11 -19 -17 -37 -14
-40 5 -6 -25 -64 -44 -85 -7 -7 -13 -19 -13 -26 0 -7 -9 -21 -20 -31 -11 -10
-20 -27 -20 -38 0 -24 -58 -147 -69 -147 -5 0 -11 -13 -14 -29 -4 -16 -25 -49
-48 -73 l-43 -43 -6 30 -6 30 -5 -37 c-3 -21 -1 -38 3 -38 13 0 9 -20 -8 -37
-8 -9 -14 -27 -12 -41 3 -25 7 -27 101 -38 166 -21 299 -70 433 -159 174 -116
323 -333 376 -548 20 -81 21 -95 9 -164 -7 -42 -9 -78 -4 -82 4 -3 9 -19 11
-36 2 -16 6 -33 10 -36 4 -4 50 -9 103 -12 109 -6 133 -16 172 -76 26 -40 42
-87 52 -156 3 -22 9 -47 12 -55 8 -22 7 -70 -3 -105 -4 -16 -7 -38 -6 -48 0
-9 -3 -17 -9 -17 -5 0 -9 -6 -9 -14 0 -8 -9 -18 -21 -21 -11 -4 -18 -12 -16
-19 3 -6 -4 -12 -14 -12 -20 0 -45 48 -34 65 3 7 -3 11 -17 12 -22 0 -22 1 -3
9 11 5 17 9 12 9 -4 1 0 12 8 25 16 24 6 44 -15 31 -5 -3 -8 0 -5 7 4 10 -6
13 -42 11 -32 -2 -42 0 -29 5 14 6 16 11 8 16 -7 4 -16 5 -20 2 -5 -3 -18 4
-30 14 -12 11 -28 20 -37 20 -8 0 -15 5 -15 11 0 5 5 7 10 4 6 -3 15 -3 21 1
6 3 34 8 62 10 28 3 56 9 61 14 6 6 6 10 1 10 -6 0 -4 4 4 9 12 8 12 11 0 24
-8 8 -25 18 -37 21 -12 4 -22 12 -22 17 0 5 -12 8 -26 7 -15 -2 -29 3 -31 10
-3 7 4 12 17 12 40 0 9 20 -33 21 -40 1 -40 2 -12 9 l30 8 -31 1 c-33 1 -59
22 -46 36 4 4 -16 5 -45 3 -36 -4 -53 -1 -57 8 -2 6 4 14 14 17 24 6 35 71 34
197 -3 297 -204 604 -489 747 -137 69 -335 111 -472 99 -171 -14 -392 -105
-496 -205 -142 -135 -251 -311 -297 -482 -14 -49 -19 -60 -15 -32 3 24 12 64
21 90 26 80 110 246 140 278 16 16 37 41 46 54 9 14 59 67 110 119 107 110
165 142 343 193 61 17 112 33 113 34 2 2 1 17 -3 34 -8 37 -25 41 -25 6 0 -16
-6 -25 -15 -25 -15 0 -19 11 -16 40 2 13 0 13 -8 1 -7 -11 -13 -7 -26 20 -15
27 -18 63 -18 210 -1 126 3 182 11 192 7 8 14 29 15 46 1 17 5 31 10 31 9 0 9
-16 -3 -65 -6 -26 -5 -44 1 -52 6 -6 8 -21 5 -31 -4 -13 -1 -22 9 -25 8 -4 14
-14 13 -24 -3 -35 2 -54 12 -48 6 4 9 14 6 23 -2 10 -7 59 -11 111 -5 66 -4
91 4 87 6 -4 11 -1 12 6 0 7 7 0 15 -17 15 -29 15 -29 10 25 -4 45 -3 50 5 30
35 -80 38 -85 38 -65 1 12 -3 25 -8 30 -13 15 -24 68 -11 60 5 -3 10 -12 10
-19 0 -8 7 -19 15 -26 13 -11 15 -8 17 16 0 16 0 39 -1 52 -2 27 25 30 46 5
12 -16 13 -13 7 26 l-6 44 31 -5 c22 -3 28 -1 21 6 -13 13 -13 39 0 31 5 -3
21 -3 35 1 19 5 24 11 20 25 -8 23 -8 23 41 5z m149 4 c8 -13 -5 -13 -25 0
-13 8 -13 10 2 10 9 0 20 -4 23 -10z m3437 -87 c24 -21 23 -60 -1 -73 -29 -15
-36 -13 -48 19 -8 24 -8 34 4 50 17 25 21 26 45 4z m-2547 -195 l40 -43 -45
40 c-25 22 -47 41 -49 43 -2 1 0 2 5 2 6 0 28 -19 49 -42z m-1425 -2 c0 -8 -4
-18 -10 -21 -5 -3 -10 -34 -10 -68 0 -58 -38 -219 -39 -169 -1 25 27 238 34
260 6 17 25 15 25 -2z m-11 -258 c-1 -31 -1 -31 -8 -8 -5 14 -6 28 -4 33 9 15
13 6 12 -25z m2483 -9 c29 -6 100 -34 158 -62 90 -44 117 -63 191 -137 69 -69
93 -102 129 -174 24 -49 47 -107 52 -130 37 -176 28 -359 -22 -456 -4 -9 -11
-30 -15 -48 -3 -18 -22 -51 -41 -74 -19 -22 -33 -47 -30 -54 2 -6 -4 -20 -15
-30 -10 -9 -19 -22 -19 -29 0 -6 -25 -40 -55 -75 -30 -35 -55 -70 -55 -79 0
-19 -39 -61 -57 -61 -7 0 -19 -11 -25 -25 -8 -17 -15 -22 -23 -15 -7 6 -21 2
-40 -10 -31 -21 -18 -28 16 -10 31 17 23 -6 -11 -30 -16 -12 -39 -22 -50 -23
-11 -1 -20 -4 -20 -8 0 -12 -93 -69 -112 -69 -11 0 -38 -9 -60 -20 -23 -11
-47 -20 -54 -20 -7 0 -14 -4 -16 -8 -1 -5 -15 -12 -30 -16 -25 -6 -28 -4 -28
18 0 16 7 27 20 31 11 3 20 11 20 16 0 5 11 9 24 9 14 0 28 5 31 10 4 6 28 21
54 35 27 13 63 37 82 52 18 15 30 22 25 16 -16 -28 7 -9 96 77 51 49 90 90 85
90 -12 0 21 58 57 98 29 34 53 66 81 111 6 8 30 45 54 80 63 93 89 158 95 239
3 39 9 77 12 86 4 11 1 16 -11 16 -14 0 -16 6 -11 32 4 21 1 39 -9 55 -9 13
-14 27 -11 31 9 16 -46 157 -75 189 -16 19 -29 38 -29 44 0 6 -35 45 -78 87
-103 102 -195 149 -319 163 -137 15 -214 3 -295 -48 -21 -13 -42 -23 -48 -23
-22 0 -118 -110 -135 -154 -24 -63 -38 -59 -63 16 -11 33 -11 42 7 76 26 50
97 112 181 156 106 56 272 79 392 55z m-1251 -159 l23 -40 84 0 c82 0 84 -1
79 -22 -44 -205 -42 -190 -24 -286 16 -84 23 -211 9 -166 -4 11 -13 27 -20 35
-7 7 -22 27 -33 42 l-22 28 -37 -36 c-23 -22 -43 -34 -50 -30 -14 9 -6 115 15
209 16 68 12 81 -38 119 -38 29 -60 76 -46 98 5 8 9 30 9 50 0 62 16 61 51 -1z
m-1301 -11 c0 -4 -7 -6 -15 -3 -8 4 -15 10 -15 15 0 4 7 6 15 3 8 -4 15 -10
15 -15z m1116 -5 c58 -11 81 -20 81 -31 0 -11 -8 -13 -29 -9 -20 4 -35 1 -45
-9 -11 -11 -19 -13 -27 -5 -7 5 -15 8 -18 5 -2 -3 -22 11 -44 30 -47 41 -39
43 82 19z m-621 -143 c271 -56 512 -262 610 -521 42 -110 64 -242 45 -265 -10
-12 -10 -15 0 -15 9 0 10 -10 5 -37 -5 -21 -9 -48 -10 -60 -2 -34 -23 -53 -48
-44 -28 10 -47 4 -48 -17 0 -11 -2 -12 -6 -4 -7 19 -23 4 -23 -24 0 -14 -6
-24 -14 -24 -7 0 -19 -6 -25 -14 -7 -8 -30 -17 -52 -21 -30 -5 -39 -11 -39
-26 0 -11 -4 -18 -9 -14 -5 3 -12 1 -16 -5 -3 -5 -11 -10 -16 -10 -6 0 -7 5
-4 10 4 7 -2 9 -19 4 -27 -7 -60 11 -50 27 3 5 12 2 20 -6 9 -8 20 -12 26 -9
20 12 -30 32 -84 33 -27 1 -42 31 -16 31 6 0 3 6 -8 14 -10 8 -21 12 -24 10
-2 -3 2 -9 10 -14 10 -7 11 -10 3 -10 -7 0 -13 -8 -14 -17 0 -15 -2 -15 -9 2
-8 19 -9 19 -9 -2 -1 -34 -73 -115 -128 -145 -27 -15 -74 -34 -104 -41 l-54
-14 -3 -67 -3 -66 -49 0 c-48 0 -50 1 -50 28 0 15 -3 44 -6 64 -6 34 -9 37
-58 49 -116 27 -185 81 -209 164 -12 41 -18 50 -36 48 -11 -2 -21 1 -21 6 0
13 211 19 231 7 10 -5 19 -25 22 -44 7 -41 23 -62 49 -62 18 0 19 5 12 106
l-7 105 29 -6 c16 -4 45 -11 64 -16 l35 -8 0 -88 0 -88 38 -3 c32 -3 43 2 72
31 39 39 43 63 18 114 -23 49 -90 89 -182 109 -111 24 -181 44 -222 65 -142
71 -127 267 26 351 61 34 39 37 -31 4 -85 -39 -142 -131 -145 -230 -1 -23 -3
-32 -6 -21 -2 11 -6 30 -9 43 -2 13 -9 20 -14 17 -6 -3 -10 3 -10 14 0 24 10
27 28 9 9 -9 12 -9 12 0 0 7 -4 12 -9 12 -15 0 -25 61 -11 70 9 6 7 11 -6 19
-17 11 -16 12 9 6 32 -6 34 -2 7 25 -13 13 -19 29 -16 45 3 14 -2 31 -10 40
-9 8 -14 23 -12 32 1 10 -1 24 -6 32 -6 10 -5 12 2 7 8 -5 12 3 12 23 0 16 -4
32 -9 35 -5 4 -7 -3 -4 -14 3 -12 0 -20 -6 -20 -7 0 -9 6 -5 13 6 10 4 10 -7
0 -13 -13 -38 -19 -26 -7 4 4 -3 20 -14 35 -22 32 -6 42 18 12 13 -17 13 -16
7 6 -5 18 -3 22 7 15 19 -12 59 -14 59 -3 0 5 -4 9 -9 9 -5 0 -27 17 -50 38
l-42 38 43 28 c24 16 53 29 65 30 11 0 19 4 16 9 -2 4 -1 7 4 7 14 0 57 -84
44 -88 -16 -5 -14 -22 3 -22 25 0 39 26 26 50 -9 16 -8 21 5 26 18 7 20 54 3
54 -27 1 25 22 85 35 92 20 256 18 362 -4z m-735 -343 c0 -14 -37 -9 -49 6
-10 11 -8 16 6 24 13 8 20 6 30 -6 7 -10 13 -20 13 -24z m-90 -52 c0 -7 -6
-19 -14 -25 -18 -15 -30 11 -13 28 15 15 27 14 27 -3z m24 -21 c3 -8 1 -15 -4
-15 -6 0 -10 7 -10 15 0 8 2 15 4 15 2 0 6 -7 10 -15z m-34 -35 c0 -5 -4 -10
-10 -10 -5 0 -10 5 -10 10 0 6 5 10 10 10 6 0 10 -4 10 -10z m-20 -51 c0 -10
-7 -25 -16 -33 -8 -9 -12 -21 -8 -27 4 -8 0 -8 -15 0 -25 14 -28 31 -4 31 15
0 14 2 -3 15 -17 13 -17 14 -1 15 12 0 17 8 17 28 1 26 1 26 15 8 8 -11 15
-28 15 -37z m-62 -87 c9 9 12 8 12 -4 0 -9 -4 -20 -10 -23 -12 -7 -50 12 -50
26 0 6 6 6 18 0 13 -7 23 -6 30 1z m-41 -84 c-3 -8 -6 -5 -6 6 -1 11 2 17 5
13 3 -3 4 -12 1 -19z m33 -28 c0 -11 -4 -20 -8 -20 -4 0 -8 9 -9 20 -1 11 2
20 8 20 5 0 9 -9 9 -20z m-50 -16 c0 -8 -4 -12 -10 -9 -5 3 -10 10 -10 16 0 5
5 9 10 9 6 0 10 -7 10 -16z m-93 -86 c-2 -18 -4 -6 -4 27 0 33 2 48 4 33 2
-15 2 -42 0 -60z m143 42 c0 -5 -7 -10 -15 -10 -8 0 -15 5 -15 10 0 6 7 10 15
10 8 0 15 -4 15 -10z m-46 -36 c4 -10 1 -14 -6 -12 -15 5 -23 28 -10 28 5 0
13 -7 16 -16z m553 -40 c17 -11 52 -27 77 -34 46 -13 60 -33 30 -44 -9 -4 -23
-1 -30 5 -7 6 -17 8 -22 5 -5 -3 -14 6 -20 19 -7 16 -17 23 -27 19 -8 -3 -15
-1 -15 5 0 7 -12 23 -27 37 -30 27 -18 23 34 -12z m3263 16 c0 -15 -20 -22
-21 -8 0 7 -7 -3 -16 -22 -8 -19 -21 -42 -28 -50 -7 -8 -15 -22 -16 -30 -4
-18 -149 -148 -249 -225 -264 -204 -575 -398 -845 -530 -371 -181 -850 -332
-1280 -404 -279 -47 -778 -65 -1082 -40 -275 22 -732 106 -717 131 3 4 10 6
15 3 5 -4 16 1 25 9 10 11 12 16 3 16 -7 0 -10 2 -7 5 3 3 97 -10 209 -29 356
-61 465 -70 849 -70 302 0 366 2 515 22 469 63 1032 222 1370 387 180 88 484
257 580 322 239 162 439 316 590 456 70 66 105 84 105 57z m-3772 -36 c-4 -3
-12 5 -18 18 -12 22 -12 22 6 6 10 -10 15 -20 12 -24z m-122 -125 c9 -7 37
-14 62 -15 26 -1 50 -2 55 -3 4 -1 7 -10 7 -22 0 -11 4 -18 8 -15 10 6 168
-70 178 -86 5 -8 -8 -9 -45 -5 -62 7 -68 -12 -8 -26 20 -5 37 -13 37 -18 0
-11 -64 -2 -92 12 -9 5 -40 9 -68 9 -34 0 -49 4 -45 11 4 6 13 8 19 6 7 -3 18
-2 25 3 8 4 -5 10 -33 14 -50 8 -80 30 -72 53 4 8 1 11 -5 8 -6 -4 -16 0 -22
9 -8 11 -33 19 -70 23 -41 4 -57 10 -57 21 0 12 -12 14 -67 9 -60 -4 -64 -3
-42 9 16 9 54 13 114 12 l90 -1 5 69 4 69 4 -67 c2 -44 8 -71 18 -79z m113 70
c-19 -12 -39 -11 -39 2 0 6 7 9 15 5 8 -3 15 -1 15 5 0 6 5 7 11 3 8 -4 7 -9
-2 -15z m881 -71 c0 -14 -18 -9 -24 8 -11 28 -6 39 9 20 8 -11 15 -23 15 -28z
m644 23 c3 -5 -3 -20 -14 -32 -15 -19 -19 -21 -20 -7 0 37 21 61 34 39z m211
-301 c-3 -5 4 -10 17 -11 23 -1 23 -1 -2 -8 -14 -4 -36 -3 -48 3 -22 9 -22 11
-5 17 27 11 45 10 38 -1z m-1508 -16 c21 -3 30 -9 27 -18 -3 -7 2 -20 11 -29
24 -24 2 -31 -108 -31 -76 -1 -100 2 -107 14 -5 8 -10 11 -10 5 0 -5 -4 -5 -8
2 -4 6 -32 18 -62 27 l-55 15 50 1 c28 1 74 2 103 2 28 1 52 4 52 7 0 8 67 11
107 5z m1638 -44 c-27 -12 -43 -12 -25 0 8 5 22 9 30 9 10 0 8 -3 -5 -9z
m-579 -31 c3 -6 1 -16 -5 -22 -9 -9 -14 -8 -21 3 -9 15 -4 30 10 30 5 0 12 -5
16 -11z m-902 -78 c3 -5 -1 -11 -9 -15 -9 -3 -15 0 -15 9 0 16 16 20 24 6z
m852 -17 c-4 -9 -9 -15 -11 -12 -3 3 -3 13 1 22 4 9 9 15 11 12 3 -3 3 -13 -1
-22z m-1190 -39 c102 -9 124 -13 139 -28 8 -9 15 -19 15 -23 0 -10 -157 4
-178 16 -9 6 -30 14 -45 20 -30 11 -28 35 2 25 10 -3 40 -7 67 -10z m254 11
c0 -3 -4 -8 -10 -11 -5 -3 -10 -1 -10 4 0 6 5 11 10 11 6 0 10 -2 10 -4z m788
-15 c3 -8 -1 -12 -9 -9 -7 2 -15 10 -17 17 -3 8 1 12 9 9 7 -2 15 -10 17 -17z
m272 15 c0 -2 -28 -22 -62 -44 -237 -153 -480 -205 -724 -153 -140 29 -233 61
-249 84 -8 11 -13 22 -11 24 2 2 37 -13 79 -32 100 -48 211 -68 372 -68 179 0
258 21 445 117 156 81 150 78 150 72z m-363 -48 c-3 -8 -6 -5 -6 6 -1 11 2 17
5 13 3 -3 4 -12 1 -19z m-70 -30 c-3 -8 -6 -5 -6 6 -1 11 2 17 5 13 3 -3 4
-12 1 -19z m-70 -10 c-3 -8 -6 -5 -6 6 -1 11 2 17 5 13 3 -3 4 -12 1 -19z
m-347 -58 c18 -12 2 -12 -25 0 -13 6 -15 9 -5 9 8 0 22 -4 30 -9z m-215 -40
c-3 -5 -11 -10 -16 -10 -6 0 -7 5 -4 10 3 6 11 10 16 10 6 0 7 -4 4 -10z m170
-15 l40 -13 -35 0 c-19 0 -51 6 -70 13 l-35 13 30 0 c17 0 48 -5 70 -13z m112
-31 c-3 -3 -12 -4 -19 -1 -8 3 -5 6 6 6 11 1 17 -2 13 -5z m40 -10 c-3 -3 -12
-4 -19 -1 -8 3 -5 6 6 6 11 1 17 -2 13 -5z"/>
<path d="M5060 8205 c0 -5 5 -17 10 -25 5 -8 10 -10 10 -5 0 6 -5 17 -10 25
-5 8 -10 11 -10 5z"/>
<path d="M5750 8140 c-48 -11 -96 -69 -109 -131 -15 -70 -14 -79 13 -134 26
-51 26 -52 -14 -138 -12 -26 -28 -47 -35 -47 -12 0 -78 29 -115 51 -15 9 -26
14 -106 51 -28 12 -58 17 -88 15 -26 -2 -49 0 -52 5 -6 10 -99 9 -134 -1 -14
-4 -37 -4 -52 0 -17 5 -28 3 -31 -4 -11 -31 78 -211 148 -299 57 -73 132 -118
197 -118 92 0 168 84 283 314 75 150 94 168 81 75 -5 -34 -3 -40 10 -35 8 3
12 2 9 -4 -3 -6 -2 -10 4 -10 5 0 12 -26 14 -57 3 -54 3 -53 5 17 1 41 6 80
10 85 4 6 26 19 49 29 23 10 51 28 62 40 25 26 51 87 51 118 0 33 -18 91 -34
113 -14 19 -15 17 -9 -16 7 -45 -18 -96 -54 -110 -27 -10 -63 -4 -63 12 0 5
-7 9 -16 9 -8 0 -13 4 -10 9 4 5 1 11 -6 13 -17 6 -15 77 3 114 15 30 43 37
99 21 20 -5 19 -4 -5 8 -33 16 -54 17 -105 5z m-580 -334 c0 -2 -8 -10 -17
-17 -16 -13 -17 -12 -4 4 13 16 21 21 21 13z m212 -26 c10 0 18 -4 18 -10 0
-13 -19 -13 -60 2 -29 10 -31 12 -14 19 10 3 23 3 29 -2 5 -5 17 -9 27 -9z
m63 -40 c-11 -5 -29 -9 -40 -9 -17 -1 -17 1 -5 9 8 5 26 9 40 9 23 0 23 -1 5
-9z"/>
<path d="M3523 7843 c-47 -16 -53 -31 -24 -57 17 -16 21 -16 54 0 29 14 57 48
57 69 0 9 -46 3 -87 -12z"/>
<path d="M3291 7747 c-8 -10 -7 -14 4 -14 8 0 15 6 15 14 0 7 -2 13 -4 13 -2
0 -9 -6 -15 -13z"/>
<path d="M4797 7567 c-3 -10 -2 -17 4 -17 6 0 9 -7 5 -15 -4 -11 1 -15 17 -15
12 0 17 4 12 8 -6 4 -15 18 -21 31 -9 21 -11 22 -17 8z"/>
<path d="M7170 6561 c0 -5 5 -13 10 -16 6 -3 10 -2 10 4 0 5 -4 13 -10 16 -5
3 -10 2 -10 -4z"/>
<path d="M4720 6512 c0 -5 10 -17 21 -28 22 -19 22 -19 10 3 -12 24 -31 39
-31 25z"/>
<path d="M5000 6501 c0 -5 5 -13 10 -16 6 -3 10 -2 10 4 0 5 -4 13 -10 16 -5
3 -10 2 -10 -4z"/>
<path d="M4930 6495 c0 -5 5 -17 10 -25 5 -8 10 -10 10 -5 0 6 -5 17 -10 25
-5 8 -10 11 -10 5z"/>
<path d="M5132 6480 c0 -14 2 -19 5 -12 2 6 2 18 0 25 -3 6 -5 1 -5 -13z"/>
<path d="M7175 6480 c3 -5 13 -10 21 -10 8 0 12 5 9 10 -3 6 -13 10 -21 10 -8
0 -12 -4 -9 -10z"/>
<path d="M7246 6466 c6 -16 4 -18 -12 -12 -14 5 -16 4 -8 -4 7 -7 21 -10 31
-8 20 3 20 3 1 23 -18 19 -19 19 -12 1z"/>
<path d="M4940 6378 c0 -9 5 -20 10 -23 13 -8 13 5 0 25 -8 13 -10 13 -10 -2z"/>
<path d="M4860 6368 c0 -9 5 -20 10 -23 13 -8 13 5 0 25 -8 13 -10 13 -10 -2z"/>
<path d="M5072 6340 c0 -14 2 -19 5 -12 2 6 2 18 0 25 -3 6 -5 1 -5 -13z"/>
<path d="M4890 6340 c0 -8 5 -22 10 -30 9 -13 10 -13 10 0 0 8 -5 22 -10 30
-9 13 -10 13 -10 0z"/>
<path d="M5151 6314 c0 -11 3 -14 6 -6 3 7 2 16 -1 19 -3 4 -6 -2 -5 -13z"/>
<path d="M5712 6323 c-20 -4 -72 -43 -72 -54 0 -2 27 -4 59 -4 42 0 65 -5 79
-18 10 -10 44 -22 75 -27 68 -11 87 -20 120 -60 37 -43 41 -37 9 13 -80 126
-161 171 -270 150z"/>
<path d="M4916 6275 c4 -11 14 -48 23 -82 8 -35 20 -63 27 -63 6 0 14 -13 17
-29 9 -44 36 -105 44 -98 3 4 1 17 -5 30 -6 12 -18 44 -27 72 -9 27 -20 54
-24 60 -5 5 -11 22 -15 38 -3 15 -16 42 -27 60 -12 17 -18 23 -13 12z"/>
<path d="M4960 6248 c0 -9 5 -20 10 -23 13 -8 13 5 0 25 -8 13 -10 13 -10 -2z"/>
<path d="M5151 6248 c0 -7 4 -22 9 -33 8 -18 9 -17 9 7 1 15 -3 30 -9 33 -5 3
-10 0 -9 -7z"/>
<path d="M7456 6198 c3 -4 11 -5 19 -1 21 7 19 12 -4 10 -11 0 -18 -5 -15 -9z"/>
<path d="M5232 6105 c0 -16 2 -22 5 -12 2 9 2 23 0 30 -3 6 -5 -1 -5 -18z"/>
<path d="M5172 6090 c0 -14 2 -19 5 -12 2 6 2 18 0 25 -3 6 -5 1 -5 -13z"/>
<path d="M5057 6070 c3 -19 10 -39 14 -44 14 -15 10 15 -6 49 l-14 30 6 -35z"/>
<path d="M7550 6030 c0 -5 5 -10 11 -10 5 0 7 5 4 10 -3 6 -8 10 -11 10 -2 0
-4 -4 -4 -10z"/>
<path d="M5021 5944 c-1 -12 6 -24 14 -28 8 -3 15 -13 15 -23 0 -14 2 -15 9
-4 5 7 6 22 3 33 -3 15 -7 16 -13 7 -6 -10 -11 -7 -18 11 -9 23 -10 23 -10 4z"/>
<path d="M5091 5910 c0 -14 4 -32 9 -40 8 -12 10 -12 9 5 0 11 -4 29 -9 40 -8
18 -9 18 -9 -5z"/>
<path d="M7629 5928 c-6 -21 -5 -39 2 -44 5 -3 9 6 9 20 0 21 -7 36 -11 24z"/>
<path d="M5141 5875 c0 -11 6 -40 14 -65 10 -29 14 -35 11 -15 -7 48 -24 102
-25 80z"/>
<path d="M7660 5860 c20 -13 33 -13 25 0 -3 6 -14 10 -23 10 -15 0 -15 -2 -2
-10z"/>
<path d="M5680 5781 c-49 -27 -75 -58 -101 -121 -21 -52 -23 -69 -23 -305 0
-222 12 -388 31 -418 3 -4 11 -2 20 4 9 8 44 12 96 11 183 -4 410 50 431 103
5 13 1 15 -17 9 l-22 -6 24 25 c30 32 30 86 1 223 -11 52 -19 98 -18 102 1 4
-3 17 -10 28 -6 12 -9 24 -6 27 4 3 -3 18 -15 33 -31 39 -27 54 14 54 20 0 49
7 65 15 37 19 41 39 5 25 -15 -6 -34 -6 -47 0 -18 7 -19 9 -5 9 27 1 20 21 -7
21 -33 0 -42 17 -14 25 33 9 88 38 88 46 0 4 -27 5 -59 2 -33 -3 -67 -3 -77 1
-14 5 -13 9 10 27 28 22 51 57 42 66 -3 3 -19 -6 -36 -21 -17 -14 -40 -26 -51
-26 -16 0 -17 4 -8 26 12 33 7 39 -21 24 -13 -7 -41 -9 -69 -6 -131 17 -185
17 -221 -3z m148 -100 c68 -36 153 -112 192 -172 63 -98 95 -199 94 -299 -1
-101 -19 -151 -66 -180 -46 -28 -63 -27 -44 3 21 33 46 125 46 171 0 94 -67
254 -134 321 -101 101 -209 113 -316 37 -13 -9 -21 -11 -16 -4 4 7 2 12 -4 12
-13 0 24 57 54 83 56 49 132 60 194 28z m56 -212 c46 -36 28 -99 -28 -99 -33
0 -78 83 -60 111 10 16 61 9 88 -12z"/>
<path d="M5171 5748 c1 -7 5 -24 9 -38 8 -24 8 -24 9 7 1 17 -3 35 -9 38 -5 3
-10 0 -9 -7z"/>
<path d="M5150 5600 c0 -26 5 -43 14 -46 20 -8 29 -69 15 -95 -9 -17 -8 -35 1
-78 14 -58 15 -67 19 -116 1 -25 3 -27 12 -13 6 12 7 31 0 55 -17 67 -24 163
-12 163 16 0 13 21 -9 68 -11 22 -20 55 -20 72 0 16 -4 30 -10 30 -5 0 -10
-18 -10 -40z"/>
<path d="M5205 5447 c-4 -10 -5 -21 -1 -24 10 -10 18 4 13 24 -4 17 -4 17 -12
0z"/>
<path d="M5121 5284 c0 -11 3 -14 6 -6 3 7 2 16 -1 19 -3 4 -6 -2 -5 -13z"/>
<path d="M6565 5150 c3 -5 13 -10 21 -10 8 0 12 5 9 10 -3 6 -13 10 -21 10 -8
0 -12 -4 -9 -10z"/>
<path d="M6610 5140 c0 -5 7 -10 16 -10 8 0 12 5 9 10 -3 6 -10 10 -16 10 -5
0 -9 -4 -9 -10z"/>
<path d="M5110 5100 c0 -5 5 -10 11 -10 5 0 7 5 4 10 -3 6 -8 10 -11 10 -2 0
-4 -4 -4 -10z"/>
<path d="M6618 5040 c20 -19 26 -19 69 -8 l48 12 -40 8 c-22 4 -53 7 -69 7
l-30 1 22 -20z"/>
<path d="M5151 4924 c0 -11 3 -14 6 -6 3 7 2 16 -1 19 -3 4 -6 -2 -5 -13z"/>
<path d="M6793 4893 c9 -2 23 -2 30 0 6 3 -1 5 -18 5 -16 0 -22 -2 -12 -5z"/>
<path d="M6990 4845 c7 -8 19 -15 26 -15 7 0 11 -6 8 -14 -3 -8 3 -19 15 -25
26 -15 28 -14 34 9 6 22 -34 57 -52 46 -5 -4 -12 -2 -16 4 -3 5 -11 10 -17 10
-7 0 -6 -6 2 -15z"/>
<path d="M7090 4785 c0 -8 7 -15 16 -15 14 0 14 3 4 15 -7 8 -14 15 -16 15 -2
0 -4 -7 -4 -15z"/>
<path d="M6870 4783 c0 -5 4 -15 10 -23 11 -18 25 -7 17 15 -6 15 -27 21 -27
8z"/>
<path d="M7040 4770 c0 -5 5 -10 11 -10 5 0 7 5 4 10 -3 6 -8 10 -11 10 -2 0
-4 -4 -4 -10z"/>
<path d="M5930 4750 c0 -5 5 -10 11 -10 5 0 7 5 4 10 -3 6 -8 10 -11 10 -2 0
-4 -4 -4 -10z"/>
<path d="M6975 4735 c-18 -14 -14 -15 42 -13 39 2 58 7 53 12 -15 15 -44 16
-52 3 -6 -9 -8 -9 -8 1 0 16 -10 15 -35 -3z"/>
<path d="M5820 4710 c0 -5 4 -10 9 -10 6 0 13 5 16 10 3 6 -1 10 -9 10 -9 0
-16 -4 -16 -10z"/>
<path d="M5795 4700 c-3 -5 -1 -10 4 -10 6 0 11 5 11 10 0 6 -2 10 -4 10 -3 0
-8 -4 -11 -10z"/>
<path d="M6095 4666 c22 -7 42 -12 44 -10 8 7 -4 12 -44 18 l-40 5 40 -13z"/>
<path d="M6460 4653 c0 -20 47 -43 88 -43 41 0 20 32 -30 44 -14 3 -33 9 -42
12 -11 4 -16 0 -16 -13z"/>
<path d="M6880 4612 c0 -6 8 -13 18 -16 9 -3 -1 -3 -22 -1 -22 2 -35 1 -30 -4
5 -4 70 -18 145 -30 75 -12 147 -24 160 -27 21 -4 22 -3 4 5 -11 5 -50 15 -87
22 -68 12 -98 33 -34 22 19 -3 36 -1 40 6 5 7 -2 12 -16 13 -35 2 -42 3 -53 9
-20 10 -125 11 -125 1z"/>
<path d="M7125 4610 c3 -5 8 -10 11 -10 2 0 4 5 4 10 0 6 -5 10 -11 10 -5 0
-7 -4 -4 -10z"/>
<path d="M6545 4561 c35 -22 111 -38 100 -22 -3 6 -13 11 -21 11 -8 0 -17 7
-20 15 -4 10 -20 15 -48 15 l-41 0 30 -19z"/>
<path d="M6120 4560 c0 -5 1 -10 3 -11 1 0 22 -2 47 -5 42 -4 44 -3 26 11 -22
17 -76 20 -76 5z"/>
<path d="M7160 4560 c0 -5 5 -10 10 -10 6 0 10 5 10 10 0 6 -4 10 -10 10 -5 0
-10 -4 -10 -10z"/>
<path d="M6248 4543 c7 -3 16 -2 19 1 4 3 -2 6 -13 5 -11 0 -14 -3 -6 -6z"/>
<path d="M6885 4539 c-4 -6 -5 -12 -2 -15 2 -3 7 2 10 11 7 17 1 20 -8 4z"/>
<path d="M7045 4520 c3 -5 8 -10 11 -10 2 0 4 5 4 10 0 6 -5 10 -11 10 -5 0
-7 -4 -4 -10z"/>
<path d="M6867 4486 c4 -15 2 -17 -5 -8 -7 11 -10 11 -15 -2 -3 -8 -2 -18 3
-21 5 -3 7 -12 3 -20 -3 -9 0 -22 7 -30 10 -12 10 -15 -1 -15 -8 -1 -1 -8 15
-16 24 -13 30 -14 37 -2 5 7 7 22 5 33 -5 18 -4 19 8 3 19 -25 25 -13 20 40
-4 42 -20 69 -33 56 -3 -3 1 -9 9 -14 12 -8 10 -10 -7 -10 -13 0 -23 6 -23 13
0 8 -6 14 -14 14 -8 0 -12 -8 -9 -21z m43 -102 c0 -2 -9 -4 -21 -4 -11 0 -18
4 -14 10 5 8 35 3 35 -6z"/>
<path d="M7090 4470 c0 -5 5 -10 11 -10 5 0 7 5 4 10 -3 6 -8 10 -11 10 -2 0
-4 -4 -4 -10z"/>
<path d="M7025 4450 c3 -5 10 -10 16 -10 5 0 9 5 9 10 0 6 -7 10 -16 10 -8 0
-12 -4 -9 -10z"/>
<path d="M7090 4436 c0 -8 7 -16 15 -20 13 -4 14 -2 5 14 -13 23 -20 26 -20 6z"/>
<path d="M6985 4399 c-9 -14 -2 -20 14 -10 8 6 9 11 3 15 -6 3 -14 1 -17 -5z"/>
<path d="M7100 4387 c0 -9 -5 -17 -10 -17 -6 0 -5 -8 2 -20 7 -11 16 -20 21
-20 16 0 18 30 3 52 -13 18 -16 19 -16 5z"/>
<path d="M7020 4373 c0 -14 2 -15 9 -4 5 8 14 10 21 6 9 -5 11 -4 6 3 -11 18
-36 14 -36 -5z"/>
<path d="M6796 4325 c4 -10 0 -15 -12 -16 -18 0 -17 -1 1 -9 21 -8 50 14 39
31 -9 16 -34 10 -28 -6z"/>
<path d="M6836 4316 c-19 -30 -13 -65 14 -88 27 -22 46 -14 54 24 10 49 7 57
-23 72 -28 15 -30 14 -45 -8z"/>
<path d="M6957 4260 c-3 -13 1 -21 15 -26 25 -8 29 -3 21 24 -7 27 -29 29 -36
2z"/>
<path d="M7060 4224 c0 -16 5 -24 13 -22 18 7 20 35 2 41 -11 5 -15 0 -15 -19z"/>
<path d="M5446 4226 c7 -19 20 -21 30 -3 4 6 4 9 -1 5 -4 -4 -14 -3 -22 4 -11
8 -12 7 -7 -6z"/>
<path d="M6950 4204 c0 -20 -5 -24 -30 -24 -16 0 -30 -4 -30 -10 0 -11 42 -13
78 -4 29 8 31 49 2 57 -16 4 -20 0 -20 -19z"/>
<path d="M5530 4161 c0 -18 18 -21 30 -6 10 13 9 15 -9 15 -11 0 -21 -4 -21
-9z"/>
<path d="M6842 4127 c4 -23 33 -45 45 -33 4 5 2 11 -4 13 -20 7 -15 26 5 20
11 -2 37 -1 58 3 l39 8 -40 2 c-22 1 -55 3 -73 4 -28 2 -32 -1 -30 -17z"/>
<path d="M7139 4133 c-13 -16 -12 -17 4 -4 16 13 21 21 13 21 -2 0 -10 -8 -17
-17z"/>
<path d="M5500 4132 c0 -6 -10 -8 -22 -5 -22 5 -22 5 -5 -13 13 -14 22 -16 33
-9 18 12 20 28 5 33 -6 2 -11 -1 -11 -6z"/>
<path d="M6897 4056 c-15 -12 -15 -15 -3 -26 19 -15 36 -5 36 21 0 22 -8 24
-33 5z"/>
<path d="M6820 4019 c0 -5 5 -7 10 -4 6 3 10 8 10 11 0 2 -4 4 -10 4 -5 0 -10
-5 -10 -11z"/>
<path d="M6795 3977 c-41 -23 -47 -35 -23 -48 20 -11 22 -11 10 3 -10 12 -10
18 -1 23 6 4 15 2 19 -5 6 -9 10 -6 15 9 9 29 5 32 -20 18z"/>
<path d="M6901 3954 c0 -11 3 -14 6 -6 3 7 2 16 -1 19 -3 4 -6 -2 -5 -13z"/>
<path d="M6835 3920 c-3 -5 -2 -10 4 -10 5 0 13 5 16 10 3 6 2 10 -4 10 -5 0
-13 -4 -16 -10z"/>
<path d="M6801 3907 c17 -14 79 -48 79 -44 0 7 -65 47 -75 47 -5 0 -6 -1 -4
-3z"/>
<path d="M6348 3763 c6 -2 18 -2 25 0 6 3 1 5 -13 5 -14 0 -19 -2 -12 -5z"/>
<path d="M6125 3660 c-4 -6 7 -10 24 -10 17 0 31 5 31 10 0 6 -11 10 -24 10
-14 0 -28 -4 -31 -10z"/>
<path d="M6094 3406 c-3 -8 -1 -23 5 -33 9 -15 10 -13 11 15 0 34 -7 42 -16
18z"/>
<path d="M1400 6614 c0 -8 5 -12 10 -9 6 4 8 11 5 16 -9 14 -15 11 -15 -7z"/>
<path d="M1370 6542 c0 -15 28 -23 36 -9 4 7 4 9 -1 5 -4 -4 -14 -3 -22 3 -8
7 -13 8 -13 1z"/>
<path d="M1560 6530 c0 -5 5 -10 10 -10 6 0 10 5 10 10 0 6 -4 10 -10 10 -5 0
-10 -4 -10 -10z"/>
<path d="M1657 6526 c-11 -9 -14 -17 -8 -21 13 -7 51 12 51 25 0 14 -22 12
-43 -4z"/>
<path d="M1520 6513 c0 -10 5 -25 10 -33 7 -11 10 -7 10 18 0 17 -4 32 -10 32
-5 0 -10 -8 -10 -17z"/>
<path d="M1486 6511 c-3 -5 1 -11 9 -15 8 -3 15 -1 15 4 0 13 -18 22 -24 11z"/>
<path d="M1840 6494 c0 -9 32 -33 44 -34 5 0 1 9 -9 20 -18 20 -35 26 -35 14z"/>
<path d="M1653 6458 c-2 -16 1 -18 10 -9 7 7 8 14 1 21 -6 6 -10 2 -11 -12z"/>
<path d="M1490 6460 c0 -5 5 -10 10 -10 6 0 10 5 10 10 0 6 -4 10 -10 10 -5 0
-10 -4 -10 -10z"/>
<path d="M1535 6450 c3 -5 8 -10 11 -10 2 0 4 5 4 10 0 6 -5 10 -11 10 -5 0
-7 -4 -4 -10z"/>
<path d="M1590 6420 c0 -5 7 -10 16 -10 8 0 12 5 9 10 -3 6 -10 10 -16 10 -5
0 -9 -4 -9 -10z"/>
<path d="M1640 6414 c0 -8 5 -12 10 -9 6 3 10 10 10 16 0 5 -4 9 -10 9 -5 0
-10 -7 -10 -16z"/>
<path d="M1689 6401 c-14 -12 -18 -20 -11 -21 15 0 47 28 40 36 -3 2 -16 -4
-29 -15z"/>
<path d="M1628 6383 c7 -3 16 -2 19 1 4 3 -2 6 -13 5 -11 0 -14 -3 -6 -6z"/>
<path d="M1808 6352 c-10 -2 -18 -7 -18 -12 0 -5 6 -7 14 -4 9 3 16 -2 18 -13
2 -10 6 -13 9 -8 11 17 -5 41 -23 37z"/>
<path d="M1790 6300 c0 -5 5 -10 11 -10 5 0 7 5 4 10 -3 6 -8 10 -11 10 -2 0
-4 -4 -4 -10z"/>
<path d="M1620 6265 c-8 -9 -8 -15 -2 -15 12 0 26 19 19 26 -2 2 -10 -2 -17
-11z"/>
<path d="M1806 6227 c3 -10 9 -15 12 -12 3 3 0 11 -7 18 -10 9 -11 8 -5 -6z"/>
<path d="M1455 6123 c2 -10 4 -21 4 -25 1 -12 31 -9 31 2 0 6 -4 10 -10 10 -5
0 -10 7 -10 15 0 8 -4 15 -9 15 -5 0 -8 -8 -6 -17z"/>
<path d="M1575 6020 c-3 -5 -1 -10 4 -10 6 0 11 5 11 10 0 6 -2 10 -4 10 -3 0
-8 -4 -11 -10z"/>
<path d="M224 5536 c-3 -13 -4 -38 -1 -57 3 -27 4 -25 5 14 1 29 6 46 12 42 6
-3 10 1 10 9 0 25 -19 19 -26 -8z"/>
<path d="M2194 5251 c3 -5 15 -7 26 -4 28 7 25 13 -6 13 -14 0 -23 -4 -20 -9z"/>
<path d="M2362 5184 c10 -10 20 -16 22 -13 3 3 -5 11 -17 18 -21 13 -21 12 -5
-5z"/>
<path d="M2576 5085 c4 -8 13 -15 21 -15 13 0 13 3 3 15 -7 8 -16 15 -21 15
-5 0 -6 -7 -3 -15z"/>
<path d="M2597 5025 c3 -8 9 -12 14 -9 12 7 11 11 -5 17 -10 4 -13 1 -9 -8z"/>
<path d="M2573 4950 c6 -22 16 -40 23 -40 15 0 27 61 14 74 -7 7 -10 5 -10 -4
0 -11 -3 -11 -12 -2 -21 21 -25 13 -15 -28z"/>
<path d="M2575 4880 c-19 -7 -19 -8 -2 -15 10 -4 23 -3 29 3 14 14 -3 21 -27
12z"/>
<path d="M2456 4764 c-18 -17 -13 -34 10 -34 19 0 18 -16 -2 -24 -31 -12 -8
-16 24 -5 23 8 32 17 32 33 0 42 -36 59 -64 30z"/>
<path d="M2610 4297 c25 -42 40 -55 40 -34 0 7 -14 26 -31 43 l-31 29 22 -38z"/>
<path d="M3430 5146 c0 -2 14 -6 30 -8 17 -3 30 -1 30 4 0 4 -13 8 -30 8 -16
0 -30 -2 -30 -4z"/>
<path d="M3512 5128 c5 -15 78 -30 78 -16 0 4 -11 8 -24 8 -14 0 -28 5 -31 10
-9 14 -27 12 -23 -2z"/>
<path d="M3780 4970 c19 -13 30 -13 30 0 0 6 -10 10 -22 10 -19 0 -20 -2 -8
-10z"/>
<path d="M4471 4904 c-18 -13 -20 -18 -10 -25 20 -13 29 -11 29 6 0 20 13 19
52 -5 36 -22 48 -25 48 -11 0 5 -13 14 -30 20 -16 5 -30 15 -30 20 0 16 -33
13 -59 -5z"/>
<path d="M4660 4844 c0 -9 41 -44 52 -44 19 0 6 21 -22 35 -16 9 -30 13 -30 9z"/>
<path d="M2826 5184 c-5 -14 -4 -15 9 -4 17 14 19 20 6 20 -5 0 -12 -7 -15
-16z"/>
<path d="M5112 3084 c10 -10 20 -16 22 -13 3 3 -5 11 -17 18 -21 13 -21 12 -5
-5z"/>
<path d="M5165 3020 c3 -5 11 -10 16 -10 6 0 7 5 4 10 -3 6 -11 10 -16 10 -6
0 -7 -4 -4 -10z"/>
<path d="M5265 3000 c3 -5 14 -10 23 -10 15 0 15 2 2 10 -20 13 -33 13 -25 0z"/>
<path d="M5001 2964 c0 -11 3 -14 6 -6 3 7 2 16 -1 19 -3 4 -6 -2 -5 -13z"/>
<path d="M4930 2408 c0 -16 5 -28 10 -28 13 0 13 20 0 40 -8 12 -10 9 -10 -12z"/>
<path d="M6145 1040 c-3 -5 1 -10 9 -10 9 0 16 5 16 10 0 6 -4 10 -9 10 -6 0
-13 -4 -16 -10z"/>
<path d="M6195 840 c-3 -5 -1 -10 4 -10 6 0 11 5 11 10 0 6 -2 10 -4 10 -3 0
-8 -4 -11 -10z"/>
<path d="M7360 1180 c-9 -6 -10 -10 -3 -10 6 0 15 5 18 10 8 12 4 12 -15 0z"/>
<path d="M5026 2266 c3 -8 12 -12 20 -9 21 8 17 23 -6 23 -13 0 -18 -5 -14
-14z"/>
<path d="M5132 2268 c-16 -16 -15 -28 5 -50 15 -17 15 -18 -2 -18 -13 0 -16
-3 -9 -10 14 -14 44 -2 44 16 0 8 5 14 11 14 5 0 7 5 4 10 -4 6 -11 8 -16 5
-5 -4 -9 3 -9 14 0 25 -13 34 -28 19z"/>
<path d="M4817 2263 c-15 -15 -7 -43 13 -43 21 0 24 8 14 34 -7 17 -16 20 -27
9z"/>
<path d="M4921 2254 c0 -11 3 -14 6 -6 3 7 2 16 -1 19 -3 4 -6 -2 -5 -13z"/>
<path d="M5032 2213 c3 -29 32 -43 50 -25 7 7 4 10 -8 9 -13 -1 -20 6 -22 21
-5 32 -24 27 -20 -5z"/>
<path d="M4820 2190 c0 -5 5 -10 10 -10 6 0 10 5 10 10 0 6 -4 10 -10 10 -5 0
-10 -4 -10 -10z"/>
<path d="M4926 2186 c3 -8 15 -11 30 -8 34 6 30 22 -6 22 -21 0 -28 -4 -24
-14z"/>
<path d="M5282 2193 c-6 -3 -10 -9 -6 -14 7 -12 44 -12 44 0 0 11 -21 19 -38
14z"/>
<path d="M4850 2180 c0 -6 -10 -14 -22 -19 -12 -4 -17 -10 -11 -14 6 -4 21 1
34 11 15 13 19 21 11 26 -7 4 -12 2 -12 -4z"/>
<path d="M5220 2161 c0 -19 35 -39 47 -28 8 9 -7 28 -18 22 -5 -4 -9 1 -9 9 0
9 -4 16 -10 16 -5 0 -10 -9 -10 -19z"/>
<path d="M4650 2133 c0 -10 5 -25 10 -33 16 -23 32 8 17 32 -15 23 -27 23 -27
1z"/>
<path d="M5354 2092 c22 -26 36 -28 36 -7 0 8 -4 15 -9 15 -5 0 -18 3 -28 7
-17 6 -17 5 1 -15z"/>
<path d="M5452 2090 c0 -14 2 -19 5 -12 2 6 2 18 0 25 -3 6 -5 1 -5 -13z"/>
<path d="M5470 2050 c0 -5 -10 -10 -22 -10 -15 0 -19 -3 -12 -10 8 -8 19 -7
37 1 29 13 36 29 12 29 -8 0 -15 -4 -15 -10z"/>
<path d="M5520 1995 c0 -27 9 -32 28 -13 18 18 14 38 -8 38 -15 0 -20 -7 -20
-25z"/>
<path d="M5568 1972 c-5 -16 -11 -20 -25 -15 -17 6 -17 5 2 -16 l19 -22 8 22
c5 13 7 30 5 38 -2 11 -5 9 -9 -7z"/>
<path d="M4926 1958 c-12 -48 -7 -78 14 -78 17 0 20 7 20 50 0 36 -4 50 -14
50 -7 0 -16 -10 -20 -22z"/>
<path d="M5580 1911 c0 -5 7 -11 15 -15 8 -3 15 -1 15 3 0 5 -7 11 -15 15 -8
3 -15 1 -15 -3z"/>
<path d="M5630 1885 c0 -8 6 -18 13 -22 6 -4 17 -17 23 -27 6 -11 16 -22 22
-24 23 -7 12 18 -23 52 -20 21 -35 29 -35 21z"/>
<path d="M5620 1835 c0 -14 25 -55 36 -59 19 -7 18 9 -2 39 -14 22 -34 34 -34
20z"/>
<path d="M5060 1755 c0 -22 4 -25 34 -25 39 0 66 -21 66 -53 0 -42 11 -47 70
-33 30 8 67 17 83 20 15 4 27 13 27 22 0 13 -7 14 -42 8 -24 -4 -48 -7 -55 -8
-6 -1 -22 15 -35 34 -29 42 -61 60 -110 60 -34 0 -38 -3 -38 -25z"/>
<path d="M4889 1741 c-28 -29 -39 -61 -19 -61 5 0 14 8 19 18 9 14 10 12 11
-15 0 -19 10 -43 25 -60 l24 -28 1 26 c0 14 3 54 6 88 7 58 6 61 -15 61 -13 0
-36 -13 -52 -29z"/>
<path d="M5700 1720 c0 -5 5 -10 10 -10 6 0 10 5 10 10 0 6 -4 10 -10 10 -5 0
-10 -4 -10 -10z"/>
<path d="M5768 1693 c6 -2 18 -2 25 0 6 3 1 5 -13 5 -14 0 -19 -2 -12 -5z"/>
<path d="M5699 1671 c16 -13 21 -24 17 -38 -4 -13 -1 -25 9 -33 23 -19 29 -5
15 32 -18 44 -29 58 -49 58 -12 0 -10 -5 8 -19z"/>
<path d="M5744 1495 c-9 -23 2 -30 42 -26 35 3 43 -6 22 -27 -9 -9 -8 -12 5
-12 11 0 17 8 17 25 0 17 -5 25 -18 25 -10 0 -28 7 -40 16 -20 14 -23 14 -28
-1z"/>
<path d="M5757 1433 c-11 -10 -8 -43 4 -43 5 0 7 5 4 10 -4 6 -1 17 5 25 12
15 0 22 -13 8z"/>
<path d="M5815 1380 c-3 -5 -1 -10 4 -10 6 0 11 5 11 10 0 6 -2 10 -4 10 -3 0
-8 -4 -11 -10z"/>
<path d="M4308 1153 c7 -3 16 -2 19 1 4 3 -2 6 -13 5 -11 0 -14 -3 -6 -6z"/>
<path d="M1830 8600 c0 -5 -7 -10 -15 -10 -8 0 -15 -4 -15 -8 0 -4 9 -8 20 -8
13 0 20 7 20 18 0 10 -2 18 -5 18 -3 0 -5 -4 -5 -10z"/>
</g>
</svg>
